<?xml version="1.0" standalone="no"?>
<!DOCTYPE svg PUBLIC "-//W3C//DTD SVG 1.1//EN" "http://www.w3.org/Graphics/SVG/1.1/DTD/svg11.dtd" >
<svg xmlns="http://www.w3.org/2000/svg" xmlns:xlink="http://www.w3.org/1999/xlink" version="1.1">
<metadata>
Created by FontForge 20190801 at Tue Aug 13 11:26:18 2019
 By Jimmy Wärting
Copyright \(c\) 2019 by Nick Losacco. All rights reserved.
</metadata>
<defs>
<font id="Telegraf-Medium" horiz-adv-x="0" >
  <font-face 
    font-family="Telegraf Medium"
    font-weight="500"
    font-stretch="normal"
    units-per-em="1000"
    panose-1="0 0 6 0 0 0 0 0 0 0"
    ascent="800"
    descent="-200"
    x-height="500"
    cap-height="665"
    bbox="-443 -295 1302 1018"
    underline-thickness="30"
    underline-position="-110"
    stemh="77"
    stemv="100"
    unicode-range="U+0020-25CF"
  />
<missing-glyph horiz-adv-x="450" 
d="M369 700v-900h-285v900h285zM300 640h-149v-30h59v-33h-60v-30h150v30h-60v33h60v30zM240 524h-90v-94h150v31h-60v63zM210 493v-32h-30v32h30zM300 406h-150v-30h60v-33h-60v-30h90v63h60v30zM300 352h-30v-60h-120v-30h150v90zM300 242h-90v-50h30v20h30v-42h-90v72
h-30v-102h150v102zM300 86h-150v-102h150v102zM270 57v-43h-90v43h90zM300 -36h-150v-30h63l-63 -42v-30h150v30h-92l63 42h29v30z" />
    <glyph glyph-name="f_f" unicode="ff" horiz-adv-x="700" 
d="M700 625h-178v-125h148v-77h-140v-423h-100v423h-213v-423h-100v423h-85v52l85 29v73c0 80 40 123 161 123h89v-75h-158v-125h221v77c0 80 40 123 161 123h109v-75z" />
    <glyph glyph-name="f_f_i" unicode="ffi" horiz-adv-x="896" 
d="M591 700h248v-75h-317v-125h143v-77h-135v-423h-100v423h-213v-423h-100v423h-85v52l85 29v73c0 80 40 123 161 123h89v-75h-158v-125h221v77c0 80 40 123 161 123zM739 0v500h100v-500h-100z" />
    <glyph glyph-name="f_f_l" unicode="ffl" horiz-adv-x="930" 
d="M860 700v-700h-100v625h-238v-125h143v-77h-135v-423h-100v423h-213v-423h-100v423h-85v52l85 29v73c0 80 40 123 161 123h89v-75h-158v-125h221v77c0 80 40 123 161 123h269z" />
    <glyph glyph-name="f_i" unicode="fi" horiz-adv-x="593" 
d="M117 0v423h-85v52l85 27v75c0 80 40 123 161 123h248v-75h-317v-125h143v-77h-135v-423h-100zM426 0v500h100v-500h-100z" />
    <glyph glyph-name="f_l" unicode="fl" horiz-adv-x="617" 
d="M547 700v-700h-100v625h-238v-125h143v-77h-135v-423h-100v423h-85v52l85 29v73c0 80 40 123 161 123h269z" />
    <glyph glyph-name=".notdef" horiz-adv-x="450" 
d="M369 700v-900h-285v900h285zM300 640h-149v-30h59v-33h-60v-30h150v30h-60v33h60v30zM240 524h-90v-94h150v31h-60v63zM210 493v-32h-30v32h30zM300 406h-150v-30h60v-33h-60v-30h90v63h60v30zM300 352h-30v-60h-120v-30h150v90zM300 242h-90v-50h30v20h30v-42h-90v72
h-30v-102h150v102zM300 86h-150v-102h150v102zM270 57v-43h-90v43h90zM300 -36h-150v-30h63l-63 -42v-30h150v30h-92l63 42h29v30z" />
    <glyph glyph-name="space" unicode=" " horiz-adv-x="246" 
 />
    <glyph glyph-name="exclam" unicode="!" horiz-adv-x="239" 
d="M86 195l-17 470h101l-17 -470h-67zM60 0v96h119v-96h-119z" />
    <glyph glyph-name="quotedbl" unicode="&#x22;" horiz-adv-x="272" 
d="M15 665h99l-10 -220h-79zM158 665h99l-10 -220h-79z" />
    <glyph glyph-name="numbersign" unicode="#" horiz-adv-x="864" 
d="M814 425h-171l-60 -170h151v-75h-178l-64 -180h-90l64 180h-193l-64 -180h-90l64 180h-133v75h160l60 170h-140v75h167l59 165h90l-59 -165h193l59 165h90l-59 -165h144v-75zM493 255l60 170h-193l-60 -170h193z" />
    <glyph glyph-name="dollar" unicode="$" horiz-adv-x="516" 
d="M478 222c0 -91 -56 -142 -170 -153v-104h-100v105c-125 16 -174 90 -174 180h93c4 -61 40 -109 137 -109c89 0 116 31 116 77c0 41 -23 64 -76 72l-124 19c-87 13 -134 61 -134 137c0 83 61 137 162 151v103h100v-103c99 -15 156 -75 162 -156h-100c-5 46 -37 85 -114 85
s-113 -31 -113 -71c0 -30 15 -55 69 -63l118 -18c114 -17 148 -75 148 -152z" />
    <glyph glyph-name="percent" unicode="%" horiz-adv-x="824" 
d="M50 0v12l606 581h-279v-201h-287v273h627c36 0 57 -15 57 -46c0 -18 -7 -35 -35 -62l-583 -557h-106zM167 464h134v129h-134v-129zM483 0v272h287v-272h-287zM560 72h134v129h-134v-129z" />
    <glyph glyph-name="ampersand" unicode="&#x26;" horiz-adv-x="747" 
d="M712 292h-112c-4 -60 -15 -114 -34 -158l124 -107l-52 -55l-113 97c-48 -56 -122 -87 -229 -87c-130 0 -241 55 -241 181c0 94 49 147 142 194c-42 46 -72 95 -72 154c0 110 82 172 207 172c121 0 199 -60 199 -153c0 -80 -48 -127 -135 -166l-64 -28c3 -2 5 -5 8 -7
l162 -140c10 30 16 64 17 103c2 58 37 80 78 80h115v-80zM332 613c-67 0 -109 -33 -109 -100c0 -50 18 -85 50 -121l77 35c52 24 83 49 83 96c0 62 -37 90 -101 90zM301 57c71 0 126 22 163 65l-181 155l-28 24c-64 -30 -102 -75 -102 -131c0 -68 50 -113 148 -113z" />
    <glyph glyph-name="quotesingle" unicode="'" horiz-adv-x="129" 
d="M15 665h99l-10 -220h-79z" />
    <glyph glyph-name="parenleft" unicode="(" horiz-adv-x="351" 
d="M40 283c0 265 136 405 247 483l34 -40c-101 -95 -176 -235 -176 -443s75 -348 176 -443l-34 -40c-111 78 -247 218 -247 483z" />
    <glyph glyph-name="parenright" unicode=")" horiz-adv-x="351" 
d="M311 283c0 -265 -136 -405 -247 -483l-34 40c101 95 176 235 176 443s-75 348 -176 443l34 40c111 -78 247 -218 247 -483z" />
    <glyph glyph-name="asterisk" unicode="*" horiz-adv-x="381" 
d="M30 554l33 55l116 -91l-20 147h63l-20 -147l116 91l32 -55l-136 -55l137 -56l-33 -56l-116 92l20 -147h-63l20 147l-116 -92l-32 56l136 55z" />
    <glyph glyph-name="plus" unicode="+" horiz-adv-x="570" 
d="M485 288v-75h-159v-163h-81v163h-160v75h160v163h81v-163h159z" />
    <glyph glyph-name="comma" unicode="," horiz-adv-x="148" 
d="M15 0v96h118v-162c0 -55 -31 -78 -88 -78h-30v58h57v86h-57z" />
    <glyph glyph-name="hyphen" unicode="-" horiz-adv-x="460" 
d="M30 288h400v-75h-400v75z" />
    <glyph glyph-name="period" unicode="." horiz-adv-x="149" 
d="M15 0v96h119v-96h-119z" />
    <glyph glyph-name="slash" unicode="/" horiz-adv-x="347" 
d="M10 0l237 665h90l-237 -665h-90z" />
    <glyph glyph-name="zero" unicode="0" horiz-adv-x="714" 
d="M357 -17c-218 0 -307 154 -307 350c0 193 89 350 307 350s307 -158 307 -350c0 -195 -89 -350 -307 -350zM158 333c0 -175 56 -265 199 -265s199 90 199 265s-56 265 -199 265s-199 -90 -199 -265z" />
    <glyph glyph-name="one" unicode="1" horiz-adv-x="492" 
d="M65 0v83h153v499h-151v83h143c81 0 111 -37 111 -97v-485h140v-83h-396z" />
    <glyph glyph-name="two" unicode="2" horiz-adv-x="655" 
d="M67 0v83l340 275c58 47 73 81 73 131c0 61 -37 109 -129 109c-130 0 -178 -82 -178 -198h-108c2 129 60 283 286 283c178 0 237 -95 237 -193c0 -89 -52 -154 -170 -247l-203 -160h385v-83h-533z" />
    <glyph glyph-name="three" unicode="3" horiz-adv-x="641" 
d="M47 215h108c3 -94 70 -147 167 -147c102 0 161 46 161 148c0 75 -45 127 -132 127c-53 0 -88 -17 -123 -42l-49 65l251 216h-361v83h483v-83l-215 -193c14 4 34 8 65 8c85 0 189 -52 189 -185c0 -107 -65 -229 -273 -229c-178 0 -268 96 -271 232z" />
    <glyph glyph-name="four" unicode="4" horiz-adv-x="639" 
d="M495 243h111v-83h-111v-160h-103v160h-359v83l302 422h160v-422zM136 243h256v358z" />
    <glyph glyph-name="five" unicode="5" horiz-adv-x="643" 
d="M360 445c137 0 237 -76 237 -227c0 -132 -80 -235 -276 -235c-182 0 -265 87 -271 206h106c5 -67 51 -121 165 -121c113 0 168 53 168 148c0 104 -58 156 -151 156c-77 0 -131 -33 -167 -81h-96l23 374h472v-83h-383l-14 -205c36 38 91 68 187 68z" />
    <glyph glyph-name="six" unicode="6" horiz-adv-x="636" 
d="M348 420c124 0 229 -69 229 -208c0 -133 -98 -229 -257 -229c-157 0 -273 90 -273 344c0 230 104 356 288 356c159 0 232 -73 246 -189h-100c-12 58 -49 104 -147 104c-127 0 -190 -74 -190 -273v-6c39 64 113 101 204 101zM318 68c108 0 153 59 153 137
c0 89 -54 141 -145 141c-101 0 -162 -49 -162 -141c0 -76 53 -137 154 -137z" />
    <glyph glyph-name="seven" unicode="7" horiz-adv-x="577" 
d="M32 582v83h508v-67c-146 -142 -262 -297 -270 -598h-103c5 246 115 435 263 582h-398z" />
    <glyph glyph-name="eight" unicode="8" horiz-adv-x="630" 
d="M315 -16c-194 0 -265 97 -265 193c0 70 35 138 121 170c-62 28 -104 84 -104 153c0 92 70 181 248 181s248 -89 248 -181c0 -68 -44 -124 -104 -152c86 -33 121 -101 121 -171c0 -95 -71 -193 -265 -193zM315 382c109 0 152 46 152 111c0 61 -42 106 -152 106
s-152 -45 -152 -106c0 -65 43 -111 152 -111zM315 66c113 0 162 44 162 119c0 67 -49 122 -162 122s-162 -55 -162 -122c0 -75 49 -119 162 -119z" />
    <glyph glyph-name="nine" unicode="9" horiz-adv-x="636" 
d="M316 683c157 0 273 -90 273 -344c0 -230 -104 -356 -288 -356c-159 0 -232 73 -246 189h100c12 -58 49 -104 147 -104c127 0 190 74 190 273v6c-39 -64 -113 -101 -204 -101c-124 0 -229 69 -229 208c0 133 98 229 257 229zM310 320c101 0 162 49 162 141
c0 76 -53 137 -154 137c-108 0 -153 -59 -153 -137c0 -89 54 -141 145 -141z" />
    <glyph glyph-name="colon" unicode=":" horiz-adv-x="149" 
d="M15 404v96h119v-96h-119zM15 0v96h119v-96h-119z" />
    <glyph glyph-name="semicolon" unicode=";" horiz-adv-x="149" 
d="M15 404v96h119v-96h-119zM15 0v96h118v-162c0 -55 -31 -78 -88 -78h-30v58h57v86h-57z" />
    <glyph glyph-name="less" unicode="&#x3c;" horiz-adv-x="518" 
d="M433 432v-78l-282 -105l282 -106v-78l-348 130v107z" />
    <glyph glyph-name="equal" unicode="=" horiz-adv-x="490" 
d="M85 368h320v-75h-320v75zM85 208h320v-75h-320v75z" />
    <glyph glyph-name="greater" unicode="&#x3e;" horiz-adv-x="518" 
d="M85 432l348 -130v-107l-348 -130v78l282 106l-282 105v78z" />
    <glyph glyph-name="question" unicode="?" horiz-adv-x="649" 
d="M262 244v83h56c132 0 168 59 168 136c0 76 -44 135 -142 135c-115 0 -167 -62 -171 -163h-108c6 114 63 248 279 248c178 0 250 -96 250 -211c0 -153 -115 -228 -265 -228h-67zM270 0v96h119v-96h-119z" />
    <glyph glyph-name="at" unicode="@" horiz-adv-x="1075" 
d="M572 -200c-310 0 -512 154 -512 444c0 276 174 459 478 459c298 0 480 -138 480 -417c0 -208 -124 -271 -237 -271h-108l-4 86c-24 -65 -85 -102 -170 -102c-156 0 -218 109 -218 251s62 251 218 251c85 0 136 -27 170 -92v76h100v-390h30c58 0 121 41 121 201
c0 208 -124 333 -382 333c-264 0 -380 -165 -380 -384c0 -243 157 -365 413 -365h180v-80h-179zM527 79c100 0 149 48 149 171s-49 171 -149 171c-106 0 -138 -52 -138 -171s32 -171 138 -171z" />
    <glyph glyph-name="A" unicode="A" horiz-adv-x="716" 
d="M579 0l-59 158h-322l-59 -158h-104l247 665h155l247 -665h-105zM229 241h260l-130 351z" />
    <glyph glyph-name="B" unicode="B" horiz-adv-x="656" 
d="M466 344c78 -11 140 -64 140 -164c0 -107 -70 -180 -209 -180h-332v665h339c139 0 193 -73 193 -163c0 -98 -66 -147 -131 -158zM380 582h-212v-200h199c85 0 122 34 122 102c0 65 -25 98 -109 98zM385 83c82 0 113 50 113 109c0 73 -39 114 -131 114h-199v-223h217z" />
    <glyph glyph-name="C" unicode="C" horiz-adv-x="765" 
d="M391 -17c-235 0 -336 152 -336 350c0 195 104 350 339 350c212 0 303 -100 318 -265h-105c-13 114 -77 180 -215 180c-158 0 -229 -92 -229 -265s68 -265 226 -265c144 0 211 72 220 191h106c-11 -169 -104 -276 -324 -276z" />
    <glyph glyph-name="D" unicode="D" horiz-adv-x="711" 
d="M353 665c218 0 313 -152 313 -331c0 -181 -95 -334 -313 -334h-288v665h288zM333 83c165 0 225 85 225 251s-60 248 -225 248h-165v-499h165z" />
    <glyph glyph-name="E" unicode="E" horiz-adv-x="630" 
d="M168 83h402v-83h-505v665h502v-83h-399v-201h369v-81h-369v-217z" />
    <glyph glyph-name="F" unicode="F" horiz-adv-x="619" 
d="M567 582h-399v-208h369v-81h-369v-293h-103v665h502v-83z" />
    <glyph glyph-name="G" unicode="G" horiz-adv-x="786" 
d="M378 -17c-224 0 -323 152 -323 350c0 197 105 350 341 350c205 0 304 -90 322 -252h-107c-14 111 -78 167 -219 167c-161 0 -229 -92 -229 -265c0 -171 64 -265 230 -265c156 0 211 88 224 189h-281v76h381v-333h-93v141c-31 -96 -117 -158 -246 -158z" />
    <glyph glyph-name="H" unicode="H" horiz-adv-x="694" 
d="M526 665h103v-665h-103v301h-358v-301h-103v665h103v-281h358v281z" />
    <glyph glyph-name="I" unicode="I" horiz-adv-x="505" 
d="M440 582h-136v-499h136v-83h-375v83h136v499h-136v83h375v-83z" />
    <glyph glyph-name="J" unicode="J" horiz-adv-x="435" 
d="M38 0v83h233v582h103v-518c0 -100 -38 -147 -159 -147h-177z" />
    <glyph glyph-name="K" unicode="K" horiz-adv-x="683" 
d="M359 385l279 -380v-5h-125l-223 311l-122 -129v-182h-103v665h103v-352l320 352h135z" />
    <glyph glyph-name="L" unicode="L" horiz-adv-x="513" 
d="M168 83h337v-83h-440v665h103v-582z" />
    <glyph glyph-name="M" unicode="M" horiz-adv-x="880" 
d="M815 665v-665h-103v585l-204 -585h-136l-204 585v-585h-103v665h179l197 -565l197 565h177z" />
    <glyph glyph-name="N" unicode="N" horiz-adv-x="715" 
d="M547 665h103v-665h-178l-256 495c-19 38 -36 73 -48 105v-600h-103v665h178l257 -497c14 -27 32 -68 47 -103v600z" />
    <glyph glyph-name="O" unicode="O" horiz-adv-x="784" 
d="M392 -17c-238 0 -337 154 -337 350c0 193 99 350 337 350s337 -158 337 -350c0 -195 -99 -350 -337 -350zM163 333c0 -175 66 -265 229 -265s229 90 229 265s-66 265 -229 265s-229 -90 -229 -265z" />
    <glyph glyph-name="P" unicode="P" horiz-adv-x="626" 
d="M379 665c148 0 207 -95 207 -201c0 -108 -59 -202 -207 -202h-210v-262h-104v665h314zM354 345c94 0 124 51 124 119s-30 118 -124 118h-185v-237h185z" />
    <glyph glyph-name="Q" unicode="Q" horiz-adv-x="798" 
d="M55 341c0 193 99 342 339 342s339 -150 339 -332c0 -127 -56 -221 -166 -269h181v-82h-354c-240 0 -339 145 -339 341zM163 341c0 -171 66 -256 231 -256s231 85 231 256s-66 257 -231 257s-231 -86 -231 -257z" />
    <glyph glyph-name="R" unicode="R" horiz-adv-x="656" 
d="M575 172v-63c0 -54 9 -90 14 -109h-101c-6 17 -13 51 -13 105v52c0 96 -53 131 -139 131h-168v-288h-103v665h318c139 0 213 -70 213 -180c0 -91 -56 -150 -130 -169c67 -22 109 -51 109 -144zM376 364c85 0 112 43 112 114c0 65 -35 104 -116 104h-204v-218h208z" />
    <glyph glyph-name="S" unicode="S" horiz-adv-x="660" 
d="M48 223h100c3 -101 61 -159 192 -159c134 0 166 46 166 114c0 62 -37 96 -112 107l-154 22c-113 16 -172 75 -172 179c0 111 82 197 260 197c187 0 266 -94 275 -213h-100c-10 80 -63 133 -176 133c-108 0 -155 -47 -155 -114c0 -49 27 -85 89 -94l163 -24
c116 -17 186 -70 186 -180c0 -131 -80 -207 -270 -207c-218 0 -292 114 -292 239z" />
    <glyph glyph-name="T" unicode="T" horiz-adv-x="634" 
d="M599 665v-83h-230v-582h-103v582h-231v83h564z" />
    <glyph glyph-name="U" unicode="U" horiz-adv-x="684" 
d="M65 242v423h103v-408c0 -156 62 -188 174 -188s174 32 174 188v408h103v-423c0 -165 -91 -258 -277 -258s-277 92 -277 258z" />
    <glyph glyph-name="V" unicode="V" horiz-adv-x="694" 
d="M554 665h105l-237 -665h-150l-237 665h108l168 -472c14 -38 27 -77 37 -116c11 39 23 78 37 116z" />
    <glyph glyph-name="W" unicode="W" horiz-adv-x="1016" 
d="M868 665h103l-145 -665h-176l-142 583l-142 -583h-176l-145 665h104l131 -602l147 602h163l147 -602z" />
    <glyph glyph-name="X" unicode="X" horiz-adv-x="711" 
d="M671 0h-129l-191 256l-186 -256h-125l250 338l-244 327h126l185 -247l181 247h122l-241 -329z" />
    <glyph glyph-name="Y" unicode="Y" horiz-adv-x="659" 
d="M519 665h115l-253 -445v-220h-103v220l-253 445h117l135 -257c17 -33 35 -66 52 -98c19 32 37 65 54 98z" />
    <glyph glyph-name="Z" unicode="Z" horiz-adv-x="686" 
d="M193 83h433v-83h-561v83l431 499h-428v83h555v-83z" />
    <glyph glyph-name="bracketleft" unicode="[" horiz-adv-x="524" 
d="M479 662h-296v-779h296v-83h-399v945h399v-83z" />
    <glyph glyph-name="backslash" unicode="\" horiz-adv-x="347" 
d="M337 0h-90l-237 665h90z" />
    <glyph glyph-name="bracketright" unicode="]" horiz-adv-x="524" 
d="M444 745v-945h-399v83h296v779h-296v83h399z" />
    <glyph glyph-name="asciicircum" unicode="^" horiz-adv-x="522" 
d="M437 381h-78l-98 214l-98 -214h-78l130 284h92z" />
    <glyph glyph-name="underscore" unicode="_" horiz-adv-x="460" 
d="M30 0h400v-75h-400v75z" />
    <glyph glyph-name="grave" unicode="`" horiz-adv-x="600" 
d="M32 612l28 72l210 -93l-16 -34z" />
    <glyph glyph-name="a" unicode="a" horiz-adv-x="555" 
d="M221 -13c-102 0 -166 55 -166 147c0 80 40 132 152 151l125 21c48 8 70 23 70 58c0 45 -24 76 -110 76c-82 0 -121 -33 -126 -96h-100c1 106 80 173 222 173c138 0 206 -63 206 -155v-248c0 -37 1 -67 5 -114h-91c-4 39 -6 73 -6 113c-20 -63 -75 -126 -181 -126zM242 64
c105 0 160 79 160 179v30c-27 -20 -59 -28 -89 -35l-69 -16c-62 -14 -89 -38 -89 -84c0 -48 35 -74 87 -74z" />
    <glyph glyph-name="b" unicode="b" horiz-adv-x="632" 
d="M353 516c161 0 233 -119 233 -266s-72 -266 -233 -266c-90 0 -151 37 -185 102v-86h-100v700h100v-286c34 65 95 102 185 102zM332 64c111 0 153 62 153 186s-42 186 -153 186c-105 0 -164 -58 -164 -186s59 -186 164 -186z" />
    <glyph glyph-name="c" unicode="c" horiz-adv-x="587" 
d="M46 250c0 149 88 266 256 266c156 0 235 -86 240 -203h-94c-8 67 -47 123 -142 123c-98 0 -159 -49 -159 -186c0 -140 60 -186 157 -186s140 58 149 129h94c-4 -111 -85 -209 -243 -209c-169 0 -258 117 -258 266z" />
    <glyph glyph-name="d" unicode="d" horiz-adv-x="632" 
d="M464 700h100v-700h-100v86c-34 -65 -95 -102 -185 -102c-161 0 -233 119 -233 266s72 266 233 266c90 0 151 -37 185 -102v286zM300 64c105 0 164 58 164 186s-59 186 -164 186c-111 0 -153 -62 -153 -186s42 -186 153 -186z" />
    <glyph glyph-name="e" unicode="e" horiz-adv-x="582" 
d="M302 58c91 0 131 41 145 93h92c-9 -69 -64 -167 -240 -167c-178 0 -253 119 -253 267c0 146 82 265 253 265c159 0 241 -113 241 -256c0 -13 0 -25 -2 -38h-394c8 -126 72 -164 158 -164zM300 442c-86 0 -143 -36 -155 -147h299c-5 101 -55 147 -144 147z" />
    <glyph glyph-name="f" unicode="f" horiz-adv-x="387" 
d="M117 0v423h-85v52l85 29v73c0 80 40 123 161 123h109v-75h-178v-125h148v-77h-140v-423h-100z" />
    <glyph glyph-name="g" unicode="g" horiz-adv-x="629" 
d="M461 500h100v-498c0 -136 -70 -213 -257 -213c-152 0 -240 64 -249 184h100c6 -67 50 -107 150 -107c109 0 156 36 156 139v96c-33 -59 -92 -88 -180 -88c-161 0 -236 103 -236 250s75 250 236 250c88 0 147 -34 180 -93v80zM305 90c105 0 156 50 156 173
s-51 173 -156 173c-111 0 -159 -46 -159 -173s48 -173 159 -173z" />
    <glyph glyph-name="h" unicode="h" horiz-adv-x="593" 
d="M351 516c133 0 182 -73 182 -204v-312h-100v303c0 105 -48 130 -111 130c-98 0 -152 -63 -152 -222v-211h-100v700h100v-312c30 74 85 128 181 128z" />
    <glyph glyph-name="i" unicode="i" horiz-adv-x="240" 
d="M57 575v90h126v-90h-126zM70 0v500h100v-500h-100z" />
    <glyph glyph-name="j" unicode="j" horiz-adv-x="240" 
d="M60 575v90h126v-90h-126zM-75 -200v80h148v620h100v-553c0 -100 -40 -147 -161 -147h-87z" />
    <glyph glyph-name="k" unicode="k" horiz-adv-x="588" 
d="M440 0l-176 229l-94 -89v-140h-100v700h100v-449c17 21 35 41 51 56l203 193h122v-3l-218 -207l237 -290h-125z" />
    <glyph glyph-name="l" unicode="l" horiz-adv-x="240" 
d="M70 0v700h100v-700h-100z" />
    <glyph glyph-name="m" unicode="m" horiz-adv-x="924" 
d="M692 516c119 0 172 -73 172 -204v-312h-100v303c0 95 -40 130 -106 130c-92 0 -142 -63 -142 -222v-211h-98v303c0 95 -40 130 -106 130c-90 0 -142 -63 -142 -222v-211h-100v500h100v-109c29 73 83 125 176 125c94 0 145 -45 163 -129c29 75 84 129 183 129z" />
    <glyph glyph-name="n" unicode="n" horiz-adv-x="593" 
d="M351 516c133 0 182 -73 182 -204v-312h-100v303c0 105 -48 130 -111 130c-98 0 -152 -63 -152 -222v-211h-100v500h100v-112c30 74 85 128 181 128z" />
    <glyph glyph-name="o" unicode="o" horiz-adv-x="608" 
d="M304 -16c-174 0 -258 119 -258 267c0 146 84 265 258 265s258 -120 258 -265c0 -147 -84 -267 -258 -267zM147 250c0 -133 49 -186 157 -186s157 53 157 186s-49 186 -157 186s-157 -53 -157 -186z" />
    <glyph glyph-name="p" unicode="p" horiz-adv-x="632" 
d="M353 516c161 0 233 -119 233 -266s-72 -266 -233 -266c-90 0 -151 37 -185 102v-286h-100v700h100v-86c34 65 95 102 185 102zM332 64c111 0 153 62 153 186s-42 186 -153 186c-105 0 -164 -58 -164 -186s59 -186 164 -186z" />
    <glyph glyph-name="q" unicode="q" horiz-adv-x="632" 
d="M464 500h100v-700h-100v286c-34 -65 -95 -102 -185 -102c-161 0 -233 119 -233 266s72 266 233 266c90 0 151 -37 185 -102v86zM300 64c105 0 164 58 164 186s-59 186 -164 186c-111 0 -153 -62 -153 -186s42 -186 153 -186z" />
    <glyph glyph-name="r" unicode="r" horiz-adv-x="392" 
d="M346 508h15v-97h-25c-134 0 -166 -84 -166 -220v-191h-100v500h99v-121c30 74 84 129 177 129z" />
    <glyph glyph-name="s" unicode="s" horiz-adv-x="516" 
d="M34 167h93c4 -61 45 -109 142 -109c89 0 111 31 111 77c0 41 -23 64 -76 72l-124 19c-87 13 -134 61 -134 137c0 96 77 154 208 154c129 0 209 -65 216 -159h-100c-5 46 -42 85 -119 85s-108 -31 -108 -71c0 -30 15 -55 69 -63l108 -16c124 -19 158 -76 158 -153
c0 -103 -67 -156 -212 -156c-165 0 -232 81 -232 183z" />
    <glyph glyph-name="t" unicode="t" horiz-adv-x="400" 
d="M263 0c-121 0 -151 47 -151 147v276h-95v52l104 36l41 102h50v-113h160v-77h-160v-343h150v-80h-99z" />
    <glyph glyph-name="u" unicode="u" horiz-adv-x="593" 
d="M423 500h100v-500h-100v109c-29 -73 -83 -125 -177 -125c-133 0 -186 73 -186 204v312h100v-303c0 -105 50 -130 117 -130c89 0 146 73 146 222v211z" />
    <glyph glyph-name="v" unicode="v" horiz-adv-x="558" 
d="M438 500h97l-190 -500h-132l-190 500h103l156 -411z" />
    <glyph glyph-name="w" unicode="w" horiz-adv-x="884" 
d="M762 500h97l-150 -500h-142l-125 380l-125 -380h-142l-150 500h103l123 -425l144 425h100l144 -425z" />
    <glyph glyph-name="x" unicode="x" horiz-adv-x="559" 
d="M25 0l195 250l-192 250h119l134 -187l134 187h112l-189 -246l199 -254h-119l-140 191l-141 -191h-112z" />
    <glyph glyph-name="y" unicode="y" horiz-adv-x="561" 
d="M441 500h97l-209 -544c-41 -106 -66 -156 -187 -156h-86v80h148l47 120h-36l-189 500h103l135 -357l21 -60l19 60z" />
    <glyph glyph-name="z" unicode="z" horiz-adv-x="541" 
d="M169 75h327v-75h-446v75l324 350h-320v75h438v-75z" />
    <glyph glyph-name="braceleft" unicode="{" horiz-adv-x="406" 
d="M40 245v76h29c57 0 78 28 78 90v172c0 106 54 190 227 190v-41c-85 -3 -127 -48 -127 -158v-169c0 -55 -22 -100 -84 -114v-16c62 -14 84 -59 84 -114v-169c0 -110 42 -155 127 -158v-41c-173 0 -227 84 -227 190v172c0 62 -21 90 -78 90h-29z" />
    <glyph glyph-name="bar" unicode="|" horiz-adv-x="273" 
d="M85 -200v945h103v-945h-103z" />
    <glyph glyph-name="braceright" unicode="}" horiz-adv-x="406" 
d="M366 245h-29c-57 0 -78 -28 -78 -90v-172c0 -106 -54 -190 -227 -190v41c85 3 127 48 127 158v169c0 55 22 100 84 114v16c-62 14 -84 59 -84 114v169c0 110 -42 155 -127 158v41c173 0 227 -84 227 -190v-172c0 -62 21 -90 78 -90h29v-76z" />
    <glyph glyph-name="asciitilde" unicode="~" horiz-adv-x="506" 
d="M343 176c-87 0 -132 76 -167 76c-12 0 -19 -7 -19 -22v-52h-72v72c0 50 33 70 78 70c91 0 128 -76 167 -76c12 0 19 7 19 22v52h72v-72c0 -50 -43 -70 -78 -70z" />
    <glyph glyph-name="exclamdown" unicode="&#xa1;" horiz-adv-x="239" 
d="M60 500h119v-96h-119v96zM86 305h67l17 -470h-101z" />
    <glyph glyph-name="cent" unicode="&#xa2;" horiz-adv-x="521" 
d="M441 400c-1 -80 -54 -138 -135 -153v-76h-80v76c-90 16 -146 86 -146 188s56 173 146 189v76h80v-76c81 -14 130 -68 131 -150h-74c-6 57 -40 87 -96 87c-72 0 -106 -40 -106 -126c0 -87 32 -125 105 -125c59 0 94 32 100 90h75z" />
    <glyph glyph-name="sterling" unicode="&#xa3;" horiz-adv-x="559" 
d="M253 77h226v-77h-399v77h73v163h-73v77h73v67h-73v77h73v92c0 100 40 147 161 147h137v-80h-198v-159h152v-77h-152v-67h152v-77h-152v-163z" />
    <glyph glyph-name="yen" unicode="&#xa5;" horiz-adv-x="659" 
d="M634 665l-214 -377h110v-65h-147l-2 -3v-51h149v-65h-149v-104h-103v104h-148v65h148v51l-2 3h-146v65h109l-214 377h117l135 -257c19 -37 35 -73 52 -109c18 36 35 73 54 109l136 257h115z" />
    <glyph glyph-name="brokenbar" unicode="&#xa6;" horiz-adv-x="273" 
d="M85 357v388h103v-388h-103zM85 -200v388h103v-388h-103z" />
    <glyph glyph-name="section" unicode="&#xa7;" horiz-adv-x="571" 
d="M77 -34h79c1 -78 44 -116 135 -116c86 0 121 24 121 80c0 42 -24 65 -78 72l-114 16c-84 12 -129 60 -129 138c0 92 65 143 201 149c82 4 116 23 116 78c0 42 -25 66 -79 73l-113 16c-84 12 -129 60 -129 138c0 91 75 147 196 147c124 0 196 -57 202 -162h-79
c-7 65 -48 97 -123 97c-73 0 -114 -29 -114 -79c0 -36 20 -57 62 -64l120 -17c92 -14 140 -61 140 -138c0 -106 -65 -147 -204 -157c-78 -6 -114 -27 -114 -74c0 -39 19 -60 62 -67l120 -18c92 -14 139 -60 139 -138c0 -105 -65 -155 -203 -155c-139 0 -215 64 -214 181z
" />
    <glyph glyph-name="dieresis" unicode="&#xa8;" horiz-adv-x="600" 
d="M40 575v90h116v-90h-116zM247 575v90h116v-90h-116z" />
    <glyph glyph-name="copyright" unicode="&#xa9;" horiz-adv-x="861" 
d="M431 -18c-197 0 -354 156 -354 351c0 192 157 350 354 350c196 0 353 -158 353 -350c0 -195 -157 -351 -353 -351zM431 69c147 0 260 118 260 264c0 144 -113 263 -260 263c-148 0 -261 -119 -261 -263c0 -146 113 -264 261 -264zM256 333c0 111 70 184 178 184
c103 0 167 -57 167 -150h-78c-3 54 -32 82 -86 82c-67 0 -98 -36 -98 -116c0 -82 29 -116 97 -116c55 0 87 29 92 86h77c1 -91 -69 -154 -169 -154c-109 0 -180 74 -180 184z" />
    <glyph glyph-name="guillemotleft" unicode="&#xab;" horiz-adv-x="686" 
d="M55 246v8l203 246h117l-211 -250l211 -250h-117zM316 246v8l203 246h117l-211 -250l211 -250h-117z" />
    <glyph glyph-name="logicalnot" unicode="&#xac;" horiz-adv-x="570" 
d="M485 288v-180h-81v105h-319v75h400z" />
    <glyph glyph-name="registered" unicode="&#xae;" horiz-adv-x="577" 
d="M288 683c127 0 229 -102 229 -227c0 -128 -103 -230 -229 -230s-228 102 -228 230c0 125 101 227 228 227zM289 283c96 0 170 78 170 173s-74 172 -170 172c-98 0 -171 -78 -171 -172s73 -173 171 -173zM395 508c0 -30 -17 -55 -54 -58c35 -4 46 -22 46 -51v-18
c0 -17 2 -36 5 -44h-51c-3 8 -6 20 -6 43v17c0 25 -10 37 -36 37h-48v-97h-53v237h116c49 0 81 -24 81 -66zM304 474c24 0 33 10 33 30c0 17 -10 28 -31 28h-55v-58h53z" />
    <glyph glyph-name="macron" unicode="&#xaf;" horiz-adv-x="600" 
d="M98 665h338v-75h-338v75z" />
    <glyph glyph-name="degree" unicode="&#xb0;" horiz-adv-x="421" 
d="M210 392c-104 0 -165 76 -165 164c0 85 61 160 165 160c105 0 166 -75 166 -160c0 -88 -61 -164 -166 -164zM121 555c0 -56 41 -92 89 -92c49 0 90 36 90 92c0 58 -41 90 -90 90c-48 0 -89 -32 -89 -90z" />
    <glyph glyph-name="plusminus" unicode="&#xb1;" horiz-adv-x="575" 
d="M328 381h162v-75h-162v-120h-81v120h-162v75h162v119h81v-119zM85 60v75h405v-75h-405z" />
    <glyph glyph-name="acute" unicode="&#xb4;" horiz-adv-x="600" 
d="M268 612l-222 -55l-16 34l210 93z" />
    <glyph glyph-name="uni00B5" unicode="&#xb5;" horiz-adv-x="593" 
d="M423 500h100v-500h-100v99c-27 -68 -77 -115 -167 -115c-40 0 -74 10 -101 30v-214h-95v700h100v-303c0 -105 50 -130 117 -130c89 0 146 73 146 222v211z" />
    <glyph glyph-name="paragraph" unicode="&#xb6;" horiz-adv-x="689" 
d="M445 665v-865h-104v462h-74c-148 0 -207 94 -207 202c0 106 59 201 207 201h178zM505 665h104v-865h-104v865z" />
    <glyph glyph-name="periodcentered" unicode="&#xb7;" horiz-adv-x="149" 
d="M15 198v96h119v-96h-119z" />
    <glyph glyph-name="cedilla" unicode="&#xb8;" horiz-adv-x="600" 
d="M85 -166v67h75l-34 133h76l31 -121c14 -54 -14 -79 -56 -79h-92z" />
    <glyph glyph-name="guillemotright" unicode="&#xbb;" horiz-adv-x="686" 
d="M370 246l-203 -246h-117l211 250l-211 250h117l203 -246v-8zM631 246l-203 -246h-117l211 250l-211 250h117l203 -246v-8z" />
    <glyph glyph-name="questiondown" unicode="&#xbf;" horiz-adv-x="649" 
d="M379 500v-96h-119v96h119zM387 256v-83h-56c-132 0 -168 -59 -168 -136c0 -76 44 -135 142 -135c115 0 167 62 171 163h108c-6 -114 -63 -248 -279 -248c-178 0 -250 96 -250 211c0 153 115 228 265 228h67z" />
    <glyph glyph-name="Agrave" unicode="&#xc0;" horiz-adv-x="716" 
d="M479 755l-16 -34l-222 55l28 72zM579 0l-59 158h-322l-59 -158h-104l247 665h155l247 -665h-105zM229 241h260l-130 351z" />
    <glyph glyph-name="Aacute" unicode="&#xc1;" horiz-adv-x="716" 
d="M479 776l-222 -55l-16 34l210 93zM579 0l-59 158h-322l-59 -158h-104l247 665h155l247 -665h-105zM229 241h260l-130 351z" />
    <glyph glyph-name="Acircumflex" unicode="&#xc2;" horiz-adv-x="716" 
d="M360 812l-105 -80l-46 49l108 74h86l108 -74l-46 -49zM579 0l-59 158h-322l-59 -158h-104l247 665h155l247 -665h-105zM229 241h260l-130 351z" />
    <glyph glyph-name="Atilde" unicode="&#xc3;" horiz-adv-x="716" 
d="M274 773v-22h-72v29c0 50 40 67 82 67c60 0 114 -43 143 -43c12 0 19 7 19 19v22h72v-29c0 -50 -40 -67 -82 -67c-46 0 -118 43 -143 43c-12 0 -19 -7 -19 -19zM579 0l-59 158h-322l-59 -158h-104l247 665h155l247 -665h-105zM229 241h260l-130 351z" />
    <glyph glyph-name="Adieresis" unicode="&#xc4;" horiz-adv-x="716" 
d="M324 825v-90h-116v90h116zM511 825v-90h-116v90h116zM579 0l-59 158h-322l-59 -158h-104l247 665h155l247 -665h-105zM229 241h260l-130 351z" />
    <glyph glyph-name="Aring" unicode="&#xc5;" horiz-adv-x="716" 
d="M360 709c-51 0 -80 37 -80 79c0 41 29 78 80 78s80 -37 80 -78c0 -42 -29 -79 -80 -79zM360 822c-18 0 -33 -13 -33 -34s15 -35 33 -35s33 14 33 35s-15 34 -33 34zM579 0l-59 158h-322l-59 -158h-104l247 665h155l247 -665h-105zM229 241h260l-130 351z" />
    <glyph glyph-name="AE" unicode="&#xc6;" horiz-adv-x="1054" 
d="M592 83h402v-83h-505v158h-263l-97 -158h-104v4l406 661h560v-83h-399v-201h369v-81h-369v-217zM277 241h212v346z" />
    <glyph glyph-name="Ccedilla" unicode="&#xc7;" horiz-adv-x="765" 
d="M715 259c-10 -157 -91 -261 -279 -274l18 -72c14 -54 -14 -79 -56 -79h-92v67h75l-21 83c-213 13 -305 160 -305 349c0 195 104 350 339 350c212 0 303 -100 318 -265h-105c-13 114 -77 180 -215 180c-158 0 -229 -92 -229 -265s68 -265 226 -265c144 0 211 72 220 191
h106z" />
    <glyph glyph-name="Egrave" unicode="&#xc8;" horiz-adv-x="630" 
d="M427 755l-16 -34l-222 55l28 72zM168 83h402v-83h-505v665h502v-83h-399v-201h369v-81h-369v-217z" />
    <glyph glyph-name="Eacute" unicode="&#xc9;" horiz-adv-x="630" 
d="M427 776l-222 -55l-16 34l210 93zM168 83h402v-83h-505v665h502v-83h-399v-201h369v-81h-369v-217z" />
    <glyph glyph-name="Ecircumflex" unicode="&#xca;" horiz-adv-x="630" 
d="M308 812l-105 -80l-46 49l108 74h86l108 -74l-46 -49zM168 83h402v-83h-505v665h502v-83h-399v-201h369v-81h-369v-217z" />
    <glyph glyph-name="Edieresis" unicode="&#xcb;" horiz-adv-x="630" 
d="M272 825v-90h-116v90h116zM459 825v-90h-116v90h116zM168 83h402v-83h-505v665h502v-83h-399v-201h369v-81h-369v-217z" />
    <glyph glyph-name="Igrave" unicode="&#xcc;" horiz-adv-x="505" 
d="M371 755l-16 -34l-222 55l28 72zM440 582h-136v-499h136v-83h-375v83h136v499h-136v83h375v-83z" />
    <glyph glyph-name="Iacute" unicode="&#xcd;" horiz-adv-x="505" 
d="M371 776l-222 -55l-16 34l210 93zM440 582h-136v-499h136v-83h-375v83h136v499h-136v83h375v-83z" />
    <glyph glyph-name="Icircumflex" unicode="&#xce;" horiz-adv-x="505" 
d="M252 812l-105 -80l-46 49l108 74h86l108 -74l-46 -49zM440 582h-136v-499h136v-83h-375v83h136v499h-136v83h375v-83z" />
    <glyph glyph-name="Idieresis" unicode="&#xcf;" horiz-adv-x="505" 
d="M216 825v-90h-116v90h116zM403 825v-90h-116v90h116zM440 582h-136v-499h136v-83h-375v83h136v499h-136v83h375v-83z" />
    <glyph glyph-name="Eth" unicode="&#xd0;" horiz-adv-x="791" 
d="M433 665c218 0 313 -152 313 -331c0 -181 -95 -334 -313 -334h-288v287h-115v83h115v295h288zM413 83c165 0 225 85 225 251s-60 248 -225 248h-165v-212h182v-83h-182v-204h165z" />
    <glyph glyph-name="Ntilde" unicode="&#xd1;" horiz-adv-x="715" 
d="M272 773v-22h-72v29c0 50 40 67 82 67c60 0 114 -43 143 -43c12 0 19 7 19 19v22h72v-29c0 -50 -40 -67 -82 -67c-46 0 -118 43 -143 43c-12 0 -19 -7 -19 -19zM547 665h103v-665h-178l-256 495c-19 38 -36 73 -48 105v-600h-103v665h178l257 -497c14 -27 32 -68 47 -103
v600z" />
    <glyph glyph-name="Ograve" unicode="&#xd2;" horiz-adv-x="784" 
d="M273 776l28 72l210 -93l-16 -34zM392 -17c-238 0 -337 154 -337 350c0 193 99 350 337 350s337 -158 337 -350c0 -195 -99 -350 -337 -350zM163 333c0 -175 66 -265 229 -265s229 90 229 265s-66 265 -229 265s-229 -90 -229 -265z" />
    <glyph glyph-name="Oacute" unicode="&#xd3;" horiz-adv-x="784" 
d="M511 776l-222 -55l-16 34l210 93zM392 -17c-238 0 -337 154 -337 350c0 193 99 350 337 350s337 -158 337 -350c0 -195 -99 -350 -337 -350zM163 333c0 -175 66 -265 229 -265s229 90 229 265s-66 265 -229 265s-229 -90 -229 -265z" />
    <glyph glyph-name="Ocircumflex" unicode="&#xd4;" horiz-adv-x="784" 
d="M241 781l108 74h86l108 -74l-46 -49l-105 80l-105 -80zM392 -17c-238 0 -337 154 -337 350c0 193 99 350 337 350s337 -158 337 -350c0 -195 -99 -350 -337 -350zM163 333c0 -175 66 -265 229 -265s229 90 229 265s-66 265 -229 265s-229 -90 -229 -265z" />
    <glyph glyph-name="Otilde" unicode="&#xd5;" horiz-adv-x="784" 
d="M468 749c-46 0 -118 43 -143 43c-12 0 -19 -7 -19 -19v-22h-72v29c0 50 40 67 82 67c60 0 114 -43 143 -43c12 0 19 7 19 19v22h72v-29c0 -50 -40 -67 -82 -67zM392 -17c-238 0 -337 154 -337 350c0 193 99 350 337 350s337 -158 337 -350c0 -195 -99 -350 -337 -350z
M163 333c0 -175 66 -265 229 -265s229 90 229 265s-66 265 -229 265s-229 -90 -229 -265z" />
    <glyph glyph-name="Odieresis" unicode="&#xd6;" horiz-adv-x="784" 
d="M240 735v90h116v-90h-116zM427 735v90h116v-90h-116zM392 -17c-238 0 -337 154 -337 350c0 193 99 350 337 350s337 -158 337 -350c0 -195 -99 -350 -337 -350zM163 333c0 -175 66 -265 229 -265s229 90 229 265s-66 265 -229 265s-229 -90 -229 -265z" />
    <glyph glyph-name="multiply" unicode="&#xd7;" horiz-adv-x="611" 
d="M526 425l-165 -165l162 -162l-53 -53l-162 162l-166 -165l-57 57l165 165l-163 163l53 53l163 -163l165 166z" />
    <glyph glyph-name="Oslash" unicode="&#xd8;" horiz-adv-x="784" 
d="M560 648c118 -56 169 -177 169 -315c0 -195 -99 -350 -337 -350c-33 0 -63 3 -91 9l-68 -172l-80 30l67 169c-115 56 -165 175 -165 314c0 193 99 350 337 350c31 0 60 -3 87 -8l47 119l80 -30zM163 333c0 -112 27 -190 90 -231l194 492c-17 3 -35 4 -55 4
c-163 0 -229 -90 -229 -265zM392 68c163 0 229 90 229 265c0 114 -28 192 -93 233l-195 -493c18 -3 38 -5 59 -5z" />
    <glyph glyph-name="Ugrave" unicode="&#xd9;" horiz-adv-x="684" 
d="M223 776l28 72l210 -93l-16 -34zM65 242v423h103v-408c0 -156 62 -188 174 -188s174 32 174 188v408h103v-423c0 -165 -91 -258 -277 -258s-277 92 -277 258z" />
    <glyph glyph-name="Uacute" unicode="&#xda;" horiz-adv-x="684" 
d="M461 776l-222 -55l-16 34l210 93zM65 242v423h103v-408c0 -156 62 -188 174 -188s174 32 174 188v408h103v-423c0 -165 -91 -258 -277 -258s-277 92 -277 258z" />
    <glyph glyph-name="Ucircumflex" unicode="&#xdb;" horiz-adv-x="684" 
d="M191 781l108 74h86l108 -74l-46 -49l-105 80l-105 -80zM65 242v423h103v-408c0 -156 62 -188 174 -188s174 32 174 188v408h103v-423c0 -165 -91 -258 -277 -258s-277 92 -277 258z" />
    <glyph glyph-name="Udieresis" unicode="&#xdc;" horiz-adv-x="684" 
d="M190 735v90h116v-90h-116zM377 735v90h116v-90h-116zM65 242v423h103v-408c0 -156 62 -188 174 -188s174 32 174 188v408h103v-423c0 -165 -91 -258 -277 -258s-277 92 -277 258z" />
    <glyph glyph-name="Yacute" unicode="&#xdd;" horiz-adv-x="659" 
d="M449 776l-222 -55l-16 34l210 93zM519 665h115l-253 -445v-220h-103v220l-253 445h117l135 -257c17 -33 35 -66 52 -98c19 32 37 65 54 98z" />
    <glyph glyph-name="Thorn" unicode="&#xde;" horiz-adv-x="626" 
d="M379 534c148 0 207 -95 207 -201c0 -108 -59 -202 -207 -202h-210v-131h-104v665h104v-131h210zM354 214c94 0 124 51 124 119s-30 118 -124 118h-185v-237h185z" />
    <glyph glyph-name="germandbls" unicode="&#xdf;" horiz-adv-x="646" 
d="M65 0v444c0 152 83 235 282 235c173 0 240 -81 240 -171c0 -98 -66 -151 -131 -162c78 -11 140 -66 140 -166c0 -107 -70 -180 -209 -180h-127v83h115c82 0 113 50 113 109c0 73 -39 116 -131 116h-97v81h97c85 0 122 36 122 102s-43 105 -137 105
c-123 0 -174 -51 -174 -145v-451h-103z" />
    <glyph glyph-name="agrave" unicode="&#xe0;" horiz-adv-x="555" 
d="M162 612l28 72l210 -93l-16 -34zM221 -13c-102 0 -166 55 -166 147c0 80 40 132 152 151l125 21c48 8 70 23 70 58c0 45 -24 76 -110 76c-82 0 -121 -33 -126 -96h-100c1 106 80 173 222 173c138 0 206 -63 206 -155v-248c0 -37 1 -67 5 -114h-91c-4 39 -6 73 -6 113
c-20 -63 -75 -126 -181 -126zM242 64c105 0 160 79 160 179v30c-27 -20 -59 -28 -89 -35l-69 -16c-62 -14 -89 -38 -89 -84c0 -48 35 -74 87 -74z" />
    <glyph glyph-name="aacute" unicode="&#xe1;" horiz-adv-x="555" 
d="M399 612l-222 -55l-16 34l210 93zM221 -13c-102 0 -166 55 -166 147c0 80 40 132 152 151l125 21c48 8 70 23 70 58c0 45 -24 76 -110 76c-82 0 -121 -33 -126 -96h-100c1 106 80 173 222 173c138 0 206 -63 206 -155v-248c0 -37 1 -67 5 -114h-91c-4 39 -6 73 -6 113
c-20 -63 -75 -126 -181 -126zM242 64c105 0 160 79 160 179v30c-27 -20 -59 -28 -89 -35l-69 -16c-62 -14 -89 -38 -89 -84c0 -48 35 -74 87 -74z" />
    <glyph glyph-name="acircumflex" unicode="&#xe2;" horiz-adv-x="555" 
d="M129 591l108 74h86l108 -74l-46 -49l-105 80l-105 -80zM221 -13c-102 0 -166 55 -166 147c0 80 40 132 152 151l125 21c48 8 70 23 70 58c0 45 -24 76 -110 76c-82 0 -121 -33 -126 -96h-100c1 106 80 173 222 173c138 0 206 -63 206 -155v-248c0 -37 1 -67 5 -114h-91
c-4 39 -6 73 -6 113c-20 -63 -75 -126 -181 -126zM242 64c105 0 160 79 160 179v30c-27 -20 -59 -28 -89 -35l-69 -16c-62 -14 -89 -38 -89 -84c0 -48 35 -74 87 -74z" />
    <glyph glyph-name="atilde" unicode="&#xe3;" horiz-adv-x="555" 
d="M356 569c-46 0 -118 43 -143 43c-12 0 -19 -7 -19 -19v-22h-72v29c0 50 40 67 82 67c60 0 114 -43 143 -43c12 0 19 7 19 19v22h72v-29c0 -50 -40 -67 -82 -67zM221 -13c-102 0 -166 55 -166 147c0 80 40 132 152 151l125 21c48 8 70 23 70 58c0 45 -24 76 -110 76
c-82 0 -121 -33 -126 -96h-100c1 106 80 173 222 173c138 0 206 -63 206 -155v-248c0 -37 1 -67 5 -114h-91c-4 39 -6 73 -6 113c-20 -63 -75 -126 -181 -126zM242 64c105 0 160 79 160 179v30c-27 -20 -59 -28 -89 -35l-69 -16c-62 -14 -89 -38 -89 -84
c0 -48 35 -74 87 -74z" />
    <glyph glyph-name="adieresis" unicode="&#xe4;" horiz-adv-x="555" 
d="M118 575v90h116v-90h-116zM325 575v90h116v-90h-116zM221 -13c-102 0 -166 55 -166 147c0 80 40 132 152 151l125 21c48 8 70 23 70 58c0 45 -24 76 -110 76c-82 0 -121 -33 -126 -96h-100c1 106 80 173 222 173c138 0 206 -63 206 -155v-248c0 -37 1 -67 5 -114h-91
c-4 39 -6 73 -6 113c-20 -63 -75 -126 -181 -126zM242 64c105 0 160 79 160 179v30c-27 -20 -59 -28 -89 -35l-69 -16c-62 -14 -89 -38 -89 -84c0 -48 35 -74 87 -74z" />
    <glyph glyph-name="aring" unicode="&#xe5;" horiz-adv-x="555" 
d="M280 558c-43 0 -68 31 -68 67c0 35 25 66 68 66s68 -31 68 -66c0 -36 -25 -67 -68 -67zM252 625c0 -18 13 -30 28 -30s28 12 28 30s-13 29 -28 29s-28 -11 -28 -29zM221 -13c-102 0 -166 55 -166 147c0 80 40 132 152 151l125 21c48 8 70 23 70 58c0 45 -24 76 -110 76
c-82 0 -121 -33 -126 -96h-100c1 106 80 173 222 173c138 0 206 -63 206 -155v-248c0 -37 1 -67 5 -114h-91c-4 39 -6 73 -6 113c-20 -63 -75 -126 -181 -126zM242 64c105 0 160 79 160 179v30c-27 -20 -59 -28 -89 -35l-69 -16c-62 -14 -89 -38 -89 -84
c0 -48 35 -74 87 -74z" />
    <glyph glyph-name="ae" unicode="&#xe6;" horiz-adv-x="938" 
d="M658 58c91 0 131 41 145 93h92c-9 -69 -64 -167 -240 -167c-112 0 -181 47 -218 119c-36 -68 -113 -116 -206 -116c-102 0 -176 55 -176 147c0 80 40 132 152 151l125 21c48 8 70 23 70 58c0 45 -24 76 -110 76c-82 0 -121 -33 -126 -96h-100c1 106 80 173 222 173
c94 0 152 -29 180 -76c41 46 103 75 187 75c159 0 241 -113 241 -256c0 -13 0 -25 -2 -38h-394c8 -126 72 -164 158 -164zM656 442c-86 0 -143 -36 -155 -147h299c-5 101 -55 147 -144 147zM402 243v30c-27 -20 -59 -28 -89 -35l-69 -16c-62 -14 -89 -38 -89 -84
c0 -48 35 -74 87 -74c105 0 160 79 160 179z" />
    <glyph glyph-name="ccedilla" unicode="&#xe7;" horiz-adv-x="587" 
d="M547 193c-4 -100 -70 -190 -200 -206l19 -74c14 -54 -14 -79 -56 -79h-92v67h75l-22 85c-147 14 -225 125 -225 264c0 149 88 266 256 266c156 0 235 -86 240 -203h-94c-8 67 -47 123 -142 123c-98 0 -159 -49 -159 -186c0 -140 60 -186 157 -186s140 58 149 129h94z" />
    <glyph glyph-name="egrave" unicode="&#xe8;" horiz-adv-x="582" 
d="M413 591l-16 -34l-222 55l28 72zM302 58c91 0 131 41 145 93h92c-9 -69 -64 -167 -240 -167c-178 0 -253 119 -253 267c0 146 82 265 253 265c159 0 241 -113 241 -256c0 -13 0 -25 -2 -38h-394c8 -126 72 -164 158 -164zM300 442c-86 0 -143 -36 -155 -147h299
c-5 101 -55 147 -144 147z" />
    <glyph glyph-name="eacute" unicode="&#xe9;" horiz-adv-x="582" 
d="M412 612l-222 -55l-16 34l210 93zM302 58c91 0 131 41 145 93h92c-9 -69 -64 -167 -240 -167c-178 0 -253 119 -253 267c0 146 82 265 253 265c159 0 241 -113 241 -256c0 -13 0 -25 -2 -38h-394c8 -126 72 -164 158 -164zM300 442c-86 0 -143 -36 -155 -147h299
c-5 101 -55 147 -144 147z" />
    <glyph glyph-name="ecircumflex" unicode="&#xea;" horiz-adv-x="582" 
d="M293 622l-105 -80l-46 49l108 74h86l108 -74l-46 -49zM302 58c91 0 131 41 145 93h92c-9 -69 -64 -167 -240 -167c-178 0 -253 119 -253 267c0 146 82 265 253 265c159 0 241 -113 241 -256c0 -13 0 -25 -2 -38h-394c8 -126 72 -164 158 -164zM300 442
c-86 0 -143 -36 -155 -147h299c-5 101 -55 147 -144 147z" />
    <glyph glyph-name="edieresis" unicode="&#xeb;" horiz-adv-x="582" 
d="M247 665v-90h-116v90h116zM454 665v-90h-116v90h116zM302 58c91 0 131 41 145 93h92c-9 -69 -64 -167 -240 -167c-178 0 -253 119 -253 267c0 146 82 265 253 265c159 0 241 -113 241 -256c0 -13 0 -25 -2 -38h-394c8 -126 72 -164 158 -164zM300 442
c-86 0 -143 -36 -155 -147h299c-5 101 -55 147 -144 147z" />
    <glyph glyph-name="igrave" unicode="&#xec;" horiz-adv-x="240" 
d="M2 612l28 72l210 -93l-16 -34zM70 0v500h100v-500h-100z" />
    <glyph glyph-name="iacute" unicode="&#xed;" horiz-adv-x="240" 
d="M239 612l-222 -55l-16 34l210 93zM70 0v500h100v-500h-100z" />
    <glyph glyph-name="icircumflex" unicode="&#xee;" horiz-adv-x="240" 
d="M-31 591l108 74h86l108 -74l-46 -49l-105 80l-105 -80zM70 0v500h100v-500h-100z" />
    <glyph glyph-name="idieresis" unicode="&#xef;" horiz-adv-x="240" 
d="M-42 575v90h116v-90h-116zM165 575v90h116v-90h-116zM70 0v500h100v-500h-100z" />
    <glyph glyph-name="eth" unicode="&#xf0;" horiz-adv-x="606" 
d="M422 676c100 -71 138 -179 138 -372c0 -218 -86 -320 -256 -320c-183 0 -258 119 -258 266s72 266 233 266c90 0 151 -37 185 -103c0 88 -33 150 -100 198l-59 -66l-50 41l51 58c-22 10 -47 20 -74 29l37 72c36 -11 67 -23 96 -36l57 64l50 -41zM300 64
c105 0 164 58 164 186s-59 186 -164 186c-111 0 -153 -62 -153 -186s42 -186 153 -186z" />
    <glyph glyph-name="ntilde" unicode="&#xf1;" horiz-adv-x="593" 
d="M211 593v-22h-72v29c0 50 40 67 82 67c60 0 114 -43 143 -43c12 0 19 7 19 19v22h72v-29c0 -50 -40 -67 -82 -67c-46 0 -118 43 -143 43c-12 0 -19 -7 -19 -19zM351 516c133 0 182 -73 182 -204v-312h-100v303c0 105 -48 130 -111 130c-98 0 -152 -63 -152 -222v-211
h-100v500h100v-112c30 74 85 128 181 128z" />
    <glyph glyph-name="ograve" unicode="&#xf2;" horiz-adv-x="608" 
d="M186 612l28 72l210 -93l-16 -34zM304 -16c-174 0 -258 119 -258 267c0 146 84 265 258 265s258 -120 258 -265c0 -147 -84 -267 -258 -267zM147 250c0 -133 49 -186 157 -186s157 53 157 186s-49 186 -157 186s-157 -53 -157 -186z" />
    <glyph glyph-name="oacute" unicode="&#xf3;" horiz-adv-x="608" 
d="M423 612l-222 -55l-16 34l210 93zM304 -16c-174 0 -258 119 -258 267c0 146 84 265 258 265s258 -120 258 -265c0 -147 -84 -267 -258 -267zM147 250c0 -133 49 -186 157 -186s157 53 157 186s-49 186 -157 186s-157 -53 -157 -186z" />
    <glyph glyph-name="ocircumflex" unicode="&#xf4;" horiz-adv-x="608" 
d="M153 591l108 74h86l108 -74l-46 -49l-105 80l-105 -80zM304 -16c-174 0 -258 119 -258 267c0 146 84 265 258 265s258 -120 258 -265c0 -147 -84 -267 -258 -267zM147 250c0 -133 49 -186 157 -186s157 53 157 186s-49 186 -157 186s-157 -53 -157 -186z" />
    <glyph glyph-name="otilde" unicode="&#xf5;" horiz-adv-x="608" 
d="M380 569c-46 0 -118 43 -143 43c-12 0 -19 -7 -19 -19v-22h-72v29c0 50 40 67 82 67c60 0 114 -43 143 -43c12 0 19 7 19 19v22h72v-29c0 -50 -40 -67 -82 -67zM304 -16c-174 0 -258 119 -258 267c0 146 84 265 258 265s258 -120 258 -265c0 -147 -84 -267 -258 -267z
M147 250c0 -133 49 -186 157 -186s157 53 157 186s-49 186 -157 186s-157 -53 -157 -186z" />
    <glyph glyph-name="odieresis" unicode="&#xf6;" horiz-adv-x="608" 
d="M142 575v90h116v-90h-116zM349 575v90h116v-90h-116zM304 -16c-174 0 -258 119 -258 267c0 146 84 265 258 265s258 -120 258 -265c0 -147 -84 -267 -258 -267zM147 250c0 -133 49 -186 157 -186s157 53 157 186s-49 186 -157 186s-157 -53 -157 -186z" />
    <glyph glyph-name="divide" unicode="&#xf7;" horiz-adv-x="602" 
d="M301 366c-42 0 -67 31 -67 67c0 34 25 65 67 65s67 -31 67 -65c0 -36 -25 -67 -67 -67zM85 288h432v-75h-432v75zM301 4c-42 0 -67 31 -67 66s25 66 67 66s67 -31 67 -66s-25 -66 -67 -66z" />
    <glyph glyph-name="oslash" unicode="&#xf8;" horiz-adv-x="608" 
d="M443 482c80 -45 119 -132 119 -231c0 -147 -84 -267 -258 -267c-20 0 -38 2 -56 4l-54 -137l-74 27l53 135c-85 44 -127 134 -127 238c0 146 84 265 258 265c24 0 45 -2 66 -6l44 112l74 -27zM147 250c0 -81 18 -132 57 -160l136 344c-11 1 -23 2 -36 2
c-108 0 -157 -53 -157 -186zM304 64c108 0 157 53 157 186c0 75 -16 125 -49 154l-133 -339c8 -1 16 -1 25 -1z" />
    <glyph glyph-name="ugrave" unicode="&#xf9;" horiz-adv-x="593" 
d="M410 591l-16 -34l-222 55l28 72zM423 500h100v-500h-100v109c-29 -73 -83 -125 -177 -125c-133 0 -186 73 -186 204v312h100v-303c0 -105 50 -130 117 -130c89 0 146 73 146 222v211z" />
    <glyph glyph-name="uacute" unicode="&#xfa;" horiz-adv-x="593" 
d="M409 612l-222 -55l-16 34l210 93zM423 500h100v-500h-100v109c-29 -73 -83 -125 -177 -125c-133 0 -186 73 -186 204v312h100v-303c0 -105 50 -130 117 -130c89 0 146 73 146 222v211z" />
    <glyph glyph-name="ucircumflex" unicode="&#xfb;" horiz-adv-x="593" 
d="M290 622l-105 -80l-46 49l108 74h86l108 -74l-46 -49zM423 500h100v-500h-100v109c-29 -73 -83 -125 -177 -125c-133 0 -186 73 -186 204v312h100v-303c0 -105 50 -130 117 -130c89 0 146 73 146 222v211z" />
    <glyph glyph-name="udieresis" unicode="&#xfc;" horiz-adv-x="593" 
d="M244 665v-90h-116v90h116zM451 665v-90h-116v90h116zM423 500h100v-500h-100v109c-29 -73 -83 -125 -177 -125c-133 0 -186 73 -186 204v312h100v-303c0 -105 50 -130 117 -130c89 0 146 73 146 222v211z" />
    <glyph glyph-name="yacute" unicode="&#xfd;" horiz-adv-x="561" 
d="M400 612l-222 -55l-16 34l210 93zM441 500h97l-209 -544c-41 -106 -66 -156 -187 -156h-86v80h148l47 120h-36l-189 500h103l135 -357l21 -60l19 60z" />
    <glyph glyph-name="thorn" unicode="&#xfe;" horiz-adv-x="632" 
d="M353 516c161 0 233 -119 233 -266s-72 -266 -233 -266c-90 0 -151 37 -185 102v-286h-100v900h100v-286c34 65 95 102 185 102zM332 64c111 0 153 62 153 186s-42 186 -153 186c-105 0 -164 -58 -164 -186s59 -186 164 -186z" />
    <glyph glyph-name="ydieresis" unicode="&#xff;" horiz-adv-x="561" 
d="M235 665v-90h-116v90h116zM442 665v-90h-116v90h116zM441 500h97l-209 -544c-41 -106 -66 -156 -187 -156h-86v80h148l47 120h-36l-189 500h103l135 -357l21 -60l19 60z" />
    <glyph glyph-name="Amacron" unicode="&#x100;" horiz-adv-x="716" 
d="M529 833v-75h-338v75h338zM579 0l-59 158h-322l-59 -158h-104l247 665h155l247 -665h-105zM229 241h260l-130 351z" />
    <glyph glyph-name="amacron" unicode="&#x101;" horiz-adv-x="555" 
d="M111 665h338v-75h-338v75zM221 -13c-102 0 -166 55 -166 147c0 80 40 132 152 151l125 21c48 8 70 23 70 58c0 45 -24 76 -110 76c-82 0 -121 -33 -126 -96h-100c1 106 80 173 222 173c138 0 206 -63 206 -155v-248c0 -37 1 -67 5 -114h-91c-4 39 -6 73 -6 113
c-20 -63 -75 -126 -181 -126zM242 64c105 0 160 79 160 179v30c-27 -20 -59 -28 -89 -35l-69 -16c-62 -14 -89 -38 -89 -84c0 -48 35 -74 87 -74z" />
    <glyph glyph-name="Abreve" unicode="&#x102;" horiz-adv-x="716" 
d="M360 736c-92 0 -124 58 -129 107h60c3 -32 26 -52 69 -52s66 20 69 52h60c-5 -49 -37 -107 -129 -107zM579 0l-59 158h-322l-59 -158h-104l247 665h155l247 -665h-105zM229 241h260l-130 351z" />
    <glyph glyph-name="abreve" unicode="&#x103;" horiz-adv-x="555" 
d="M151 665h60c3 -32 26 -52 69 -52s66 20 69 52h60c-5 -49 -37 -107 -129 -107s-124 58 -129 107zM221 -13c-102 0 -166 55 -166 147c0 80 40 132 152 151l125 21c48 8 70 23 70 58c0 45 -24 76 -110 76c-82 0 -121 -33 -126 -96h-100c1 106 80 173 222 173
c138 0 206 -63 206 -155v-248c0 -37 1 -67 5 -114h-91c-4 39 -6 73 -6 113c-20 -63 -75 -126 -181 -126zM242 64c105 0 160 79 160 179v30c-27 -20 -59 -28 -89 -35l-69 -16c-62 -14 -89 -38 -89 -84c0 -48 35 -74 87 -74z" />
    <glyph glyph-name="Aogonek" unicode="&#x104;" horiz-adv-x="716" 
d="M638 -95c23 0 38 3 57 8v-67c-16 -8 -32 -12 -60 -12c-79 0 -131 42 -131 112c0 50 27 82 57 104l-41 108h-322l-59 -158h-104l247 665h155l247 -665h-99c-6 -12 -8 -24 -8 -39c0 -40 30 -56 61 -56zM229 241h260l-130 351z" />
    <glyph glyph-name="aogonek" unicode="&#x105;" horiz-adv-x="555" 
d="M503 -95c23 0 38 3 57 8v-67c-16 -8 -32 -12 -60 -12c-79 0 -131 42 -131 112c0 38 15 66 36 86c-2 27 -3 52 -3 81c-20 -63 -75 -126 -181 -126c-102 0 -166 55 -166 147c0 80 40 132 152 151l125 21c48 8 70 23 70 58c0 45 -24 76 -110 76c-82 0 -121 -33 -126 -96
h-100c1 106 80 173 222 173c138 0 206 -63 206 -155v-248c0 -37 1 -67 5 -114h-49c-6 -12 -8 -24 -8 -39c0 -40 30 -56 61 -56zM402 243v30c-27 -20 -59 -28 -89 -35l-69 -16c-62 -14 -89 -38 -89 -84c0 -48 35 -74 87 -74c105 0 160 79 160 179z" />
    <glyph glyph-name="Cacute" unicode="&#x106;" horiz-adv-x="765" 
d="M501 776l-222 -55l-16 34l210 93zM391 -17c-235 0 -336 152 -336 350c0 195 104 350 339 350c212 0 303 -100 318 -265h-105c-13 114 -77 180 -215 180c-158 0 -229 -92 -229 -265s68 -265 226 -265c144 0 211 72 220 191h106c-11 -169 -104 -276 -324 -276z" />
    <glyph glyph-name="cacute" unicode="&#x107;" horiz-adv-x="587" 
d="M413 612l-222 -55l-16 34l210 93zM46 250c0 149 88 266 256 266c156 0 235 -86 240 -203h-94c-8 67 -47 123 -142 123c-98 0 -159 -49 -159 -186c0 -140 60 -186 157 -186s140 58 149 129h94c-4 -111 -85 -209 -243 -209c-169 0 -258 117 -258 266z" />
    <glyph glyph-name="Cdotaccent" unicode="&#x10a;" horiz-adv-x="765" 
d="M319 735v90h126v-90h-126zM391 -17c-235 0 -336 152 -336 350c0 195 104 350 339 350c212 0 303 -100 318 -265h-105c-13 114 -77 180 -215 180c-158 0 -229 -92 -229 -265s68 -265 226 -265c144 0 211 72 220 191h106c-11 -169 -104 -276 -324 -276z" />
    <glyph glyph-name="cdotaccent" unicode="&#x10b;" horiz-adv-x="587" 
d="M231 575v90h126v-90h-126zM46 250c0 149 88 266 256 266c156 0 235 -86 240 -203h-94c-8 67 -47 123 -142 123c-98 0 -159 -49 -159 -186c0 -140 60 -186 157 -186s140 58 149 129h94c-4 -111 -85 -209 -243 -209c-169 0 -258 117 -258 266z" />
    <glyph glyph-name="Ccaron" unicode="&#x10c;" horiz-adv-x="765" 
d="M231 809l46 49l105 -80l105 80l46 -49l-108 -74h-86zM391 -17c-235 0 -336 152 -336 350c0 195 104 350 339 350c212 0 303 -100 318 -265h-105c-13 114 -77 180 -215 180c-158 0 -229 -92 -229 -265s68 -265 226 -265c144 0 211 72 220 191h106
c-11 -169 -104 -276 -324 -276z" />
    <glyph glyph-name="ccaron" unicode="&#x10d;" horiz-adv-x="587" 
d="M143 633l46 49l105 -80l105 80l46 -49l-108 -74h-86zM46 250c0 149 88 266 256 266c156 0 235 -86 240 -203h-94c-8 67 -47 123 -142 123c-98 0 -159 -49 -159 -186c0 -140 60 -186 157 -186s140 58 149 129h94c-4 -111 -85 -209 -243 -209c-169 0 -258 117 -258 266z
" />
    <glyph glyph-name="Dcaron" unicode="&#x10e;" horiz-adv-x="711" 
d="M399 735h-86l-108 74l46 49l105 -80l105 80l46 -49zM353 665c218 0 313 -152 313 -331c0 -181 -95 -334 -313 -334h-288v665h288zM333 83c165 0 225 85 225 251s-60 248 -225 248h-165v-499h165z" />
    <glyph glyph-name="dcaron" unicode="&#x10f;" horiz-adv-x="754" 
d="M640 780h99l-10 -220h-79zM464 414v286h100v-700h-100v86c-34 -65 -95 -102 -185 -102c-161 0 -233 119 -233 266s72 266 233 266c90 0 151 -37 185 -102zM300 64c105 0 164 58 164 186s-59 186 -164 186c-111 0 -153 -62 -153 -186s42 -186 153 -186z" />
    <glyph glyph-name="Dcroat" unicode="&#x110;" horiz-adv-x="791" 
d="M433 665c218 0 313 -152 313 -331c0 -181 -95 -334 -313 -334h-288v287h-115v83h115v295h288zM413 83c165 0 225 85 225 251s-60 248 -225 248h-165v-212h182v-83h-182v-204h165z" />
    <glyph glyph-name="dcroat" unicode="&#x111;" horiz-adv-x="659" 
d="M659 639v-72h-95v-567h-100v86c-34 -65 -95 -102 -185 -102c-161 0 -233 119 -233 266s72 266 233 266c90 0 151 -37 185 -102v153h-175v72h175v61h100v-61h95zM300 64c105 0 164 58 164 186s-59 186 -164 186c-111 0 -153 -62 -153 -186s42 -186 153 -186z" />
    <glyph glyph-name="Emacron" unicode="&#x112;" horiz-adv-x="630" 
d="M477 833v-75h-338v75h338zM168 83h402v-83h-505v665h502v-83h-399v-201h369v-81h-369v-217z" />
    <glyph glyph-name="emacron" unicode="&#x113;" horiz-adv-x="582" 
d="M462 665v-75h-338v75h338zM302 58c91 0 131 41 145 93h92c-9 -69 -64 -167 -240 -167c-178 0 -253 119 -253 267c0 146 82 265 253 265c159 0 241 -113 241 -256c0 -13 0 -25 -2 -38h-394c8 -126 72 -164 158 -164zM300 442c-86 0 -143 -36 -155 -147h299
c-5 101 -55 147 -144 147z" />
    <glyph glyph-name="Edotaccent" unicode="&#x116;" horiz-adv-x="630" 
d="M371 825v-90h-126v90h126zM168 83h402v-83h-505v665h502v-83h-399v-201h369v-81h-369v-217z" />
    <glyph glyph-name="edotaccent" unicode="&#x117;" horiz-adv-x="582" 
d="M356 665v-90h-126v90h126zM302 58c91 0 131 41 145 93h92c-9 -69 -64 -167 -240 -167c-178 0 -253 119 -253 267c0 146 82 265 253 265c159 0 241 -113 241 -256c0 -13 0 -25 -2 -38h-394c8 -126 72 -164 158 -164zM300 442c-86 0 -143 -36 -155 -147h299
c-5 101 -55 147 -144 147z" />
    <glyph glyph-name="Eogonek" unicode="&#x118;" horiz-adv-x="630" 
d="M570 0h-110c-6 -12 -8 -24 -8 -39c0 -40 30 -56 61 -56c23 0 38 3 57 8v-67c-16 -8 -32 -12 -60 -12c-79 0 -131 42 -131 112c0 21 5 39 12 54h-326v665h502v-83h-399v-201h369v-81h-369v-217h402v-83z" />
    <glyph glyph-name="eogonek" unicode="&#x119;" horiz-adv-x="582" 
d="M422 -39c0 -40 30 -56 61 -56c23 0 38 3 57 8v-67c-16 -8 -32 -12 -60 -12c-79 0 -131 42 -131 112c0 16 3 29 7 42c-17 -3 -36 -4 -57 -4c-178 0 -253 119 -253 267c0 146 82 265 253 265c159 0 241 -113 241 -256c0 -13 0 -25 -2 -38h-394c8 -126 72 -164 158 -164
c91 0 131 41 145 93h92c-6 -46 -33 -106 -104 -140c-9 -15 -13 -30 -13 -50zM300 442c-86 0 -143 -36 -155 -147h299c-5 101 -55 147 -144 147z" />
    <glyph glyph-name="Ecaron" unicode="&#x11a;" horiz-adv-x="630" 
d="M351 735h-86l-108 74l46 49l105 -80l105 80l46 -49zM168 83h402v-83h-505v665h502v-83h-399v-201h369v-81h-369v-217z" />
    <glyph glyph-name="ecaron" unicode="&#x11b;" horiz-adv-x="582" 
d="M336 559h-86l-108 74l46 49l105 -80l105 80l46 -49zM302 58c91 0 131 41 145 93h92c-9 -69 -64 -167 -240 -167c-178 0 -253 119 -253 267c0 146 82 265 253 265c159 0 241 -113 241 -256c0 -13 0 -25 -2 -38h-394c8 -126 72 -164 158 -164zM300 442
c-86 0 -143 -36 -155 -147h299c-5 101 -55 147 -144 147z" />
    <glyph glyph-name="Gbreve" unicode="&#x11e;" horiz-adv-x="786" 
d="M259 843h60c3 -32 26 -52 69 -52s66 20 69 52h60c-5 -49 -37 -107 -129 -107s-124 58 -129 107zM378 -17c-224 0 -323 152 -323 350c0 197 105 350 341 350c205 0 304 -90 322 -252h-107c-14 111 -78 167 -219 167c-161 0 -229 -92 -229 -265c0 -171 64 -265 230 -265
c156 0 211 88 224 189h-281v76h381v-333h-93v141c-31 -96 -117 -158 -246 -158z" />
    <glyph glyph-name="gbreve" unicode="&#x11f;" horiz-adv-x="629" 
d="M314 558c-92 0 -124 58 -129 107h60c3 -32 26 -52 69 -52s66 20 69 52h60c-5 -49 -37 -107 -129 -107zM461 500h100v-498c0 -136 -70 -213 -257 -213c-152 0 -240 64 -249 184h100c6 -67 50 -107 150 -107c109 0 156 36 156 139v96c-33 -59 -92 -88 -180 -88
c-161 0 -236 103 -236 250s75 250 236 250c88 0 147 -34 180 -93v80zM305 90c105 0 156 50 156 173s-51 173 -156 173c-111 0 -159 -46 -159 -173s48 -173 159 -173z" />
    <glyph glyph-name="Gdotaccent" unicode="&#x120;" horiz-adv-x="786" 
d="M325 735v90h126v-90h-126zM378 -17c-224 0 -323 152 -323 350c0 197 105 350 341 350c205 0 304 -90 322 -252h-107c-14 111 -78 167 -219 167c-161 0 -229 -92 -229 -265c0 -171 64 -265 230 -265c156 0 211 88 224 189h-281v76h381v-333h-93v141
c-31 -96 -117 -158 -246 -158z" />
    <glyph glyph-name="gdotaccent" unicode="&#x121;" horiz-adv-x="629" 
d="M377 665v-90h-126v90h126zM461 500h100v-498c0 -136 -70 -213 -257 -213c-152 0 -240 64 -249 184h100c6 -67 50 -107 150 -107c109 0 156 36 156 139v96c-33 -59 -92 -88 -180 -88c-161 0 -236 103 -236 250s75 250 236 250c88 0 147 -34 180 -93v80zM305 90
c105 0 156 50 156 173s-51 173 -156 173c-111 0 -159 -46 -159 -173s48 -173 159 -173z" />
    <glyph glyph-name="uni0122" unicode="&#x122;" horiz-adv-x="786" 
d="M378 -17c-224 0 -323 152 -323 350c0 197 105 350 341 350c205 0 304 -90 322 -252h-107c-14 111 -78 167 -219 167c-161 0 -229 -92 -229 -265c0 -171 64 -265 230 -265c156 0 211 88 224 189h-281v76h381v-333h-93v141c-31 -96 -117 -158 -246 -158zM329 -151v96h118
v-162c0 -55 -31 -78 -88 -78h-30v58h57v86h-57z" />
    <glyph glyph-name="uni0123" unicode="&#x123;" horiz-adv-x="629" 
d="M373 657v-96h-118v162c0 55 31 78 88 78h30v-58h-57v-86h57zM461 500h100v-498c0 -136 -70 -213 -257 -213c-152 0 -240 64 -249 184h100c6 -67 50 -107 150 -107c109 0 156 36 156 139v96c-33 -59 -92 -88 -180 -88c-161 0 -236 103 -236 250s75 250 236 250
c88 0 147 -34 180 -93v80zM305 90c105 0 156 50 156 173s-51 173 -156 173c-111 0 -159 -46 -159 -173s48 -173 159 -173z" />
    <glyph glyph-name="Hbar" unicode="&#x126;" horiz-adv-x="825" 
d="M795 573v-83h-106v-490h-103v301h-358v-301h-103v490h-95v83h95v92h103v-92h358v92h103v-92h106zM586 384v106h-358v-106h358z" />
    <glyph glyph-name="hbar" unicode="&#x127;" horiz-adv-x="618" 
d="M376 516c133 0 182 -73 182 -204v-312h-100v303c0 105 -48 130 -111 130c-98 0 -152 -63 -152 -222v-211h-100v567h-95v72h95v61h100v-61h175v-72h-175v-179c30 74 85 128 181 128z" />
    <glyph glyph-name="Imacron" unicode="&#x12a;" horiz-adv-x="505" 
d="M421 833v-75h-338v75h338zM440 582h-136v-499h136v-83h-375v83h136v499h-136v83h375v-83z" />
    <glyph glyph-name="imacron" unicode="&#x12b;" horiz-adv-x="240" 
d="M-49 665h338v-75h-338v75zM70 0v500h100v-500h-100z" />
    <glyph glyph-name="Iogonek" unicode="&#x12e;" horiz-adv-x="505" 
d="M397 -95c23 0 38 3 57 8v-67c-16 -8 -32 -12 -60 -12c-79 0 -131 42 -131 112c0 21 5 39 12 54h-210v83h136v499h-136v83h375v-83h-136v-499h136v-83h-96c-6 -12 -8 -24 -8 -39c0 -40 30 -56 61 -56z" />
    <glyph glyph-name="iogonek" unicode="&#x12f;" horiz-adv-x="240" 
d="M183 665v-90h-126v90h126zM171 -95c23 0 38 3 57 8v-67c-16 -8 -32 -12 -60 -12c-79 0 -131 42 -131 112c0 36 14 63 33 83v471h100v-500h-52c-6 -12 -8 -24 -8 -39c0 -40 30 -56 61 -56z" />
    <glyph glyph-name="Idotaccent" unicode="&#x130;" horiz-adv-x="505" 
d="M315 825v-90h-126v90h126zM440 582h-136v-499h136v-83h-375v83h136v499h-136v83h375v-83z" />
    <glyph glyph-name="dotlessi" unicode="&#x131;" horiz-adv-x="240" 
d="M70 0v500h100v-500h-100z" />
    <glyph glyph-name="uni0136" unicode="&#x136;" horiz-adv-x="683" 
d="M359 385l279 -380v-5h-125l-223 311l-122 -129v-182h-103v665h103v-352l320 352h135zM283 -151v96h118v-162c0 -55 -31 -78 -88 -78h-30v58h57v86h-57z" />
    <glyph glyph-name="uni0137" unicode="&#x137;" horiz-adv-x="588" 
d="M328 290l237 -290h-125l-176 229l-94 -89v-140h-100v700h100v-449c17 21 35 41 51 56l203 193h122v-3zM235 -151v96h118v-162c0 -55 -31 -78 -88 -78h-30v58h57v86h-57z" />
    <glyph glyph-name="Lacute" unicode="&#x139;" horiz-adv-x="513" 
d="M208 848l28 -72l-222 -55l-16 34zM168 83h337v-83h-440v665h103v-582z" />
    <glyph glyph-name="lacute" unicode="&#x13a;" horiz-adv-x="240" 
d="M239 811l-222 -55l-16 34l210 93zM70 0v700h100v-700h-100z" />
    <glyph glyph-name="uni013B" unicode="&#x13b;" horiz-adv-x="513" 
d="M168 83h337v-83h-440v665h103v-582zM213 -151v96h118v-162c0 -55 -31 -78 -88 -78h-30v58h57v86h-57z" />
    <glyph glyph-name="uni013C" unicode="&#x13c;" horiz-adv-x="240" 
d="M70 0v700h100v-700h-100zM61 -151v96h118v-162c0 -55 -31 -78 -88 -78h-30v58h57v86h-57z" />
    <glyph glyph-name="Lcaron" unicode="&#x13d;" horiz-adv-x="513" 
d="M363 560h-79l-10 220h99zM168 83h337v-83h-440v665h103v-582z" />
    <glyph glyph-name="lcaron" unicode="&#x13e;" horiz-adv-x="360" 
d="M246 780h99l-10 -220h-79zM70 0v700h100v-700h-100z" />
    <glyph glyph-name="Lslash" unicode="&#x141;" horiz-adv-x="586" 
d="M241 83h337v-83h-440v265l-108 -42v84l108 42v316h103v-277l189 73v-84l-189 -73v-221z" />
    <glyph glyph-name="lslash" unicode="&#x142;" horiz-adv-x="400" 
d="M370 451v-84l-120 -47v-320h-100v280l-120 -47v84l120 47v336h100v-296z" />
    <glyph glyph-name="Nacute" unicode="&#x143;" horiz-adv-x="715" 
d="M477 776l-222 -55l-16 34l210 93zM547 665h103v-665h-178l-256 495c-19 38 -36 73 -48 105v-600h-103v665h178l257 -497c14 -27 32 -68 47 -103v600z" />
    <glyph glyph-name="nacute" unicode="&#x144;" horiz-adv-x="593" 
d="M416 612l-222 -55l-16 34l210 93zM351 516c133 0 182 -73 182 -204v-312h-100v303c0 105 -48 130 -111 130c-98 0 -152 -63 -152 -222v-211h-100v500h100v-112c30 74 85 128 181 128z" />
    <glyph glyph-name="uni0145" unicode="&#x145;" horiz-adv-x="715" 
d="M547 665h103v-665h-178l-256 495c-19 38 -36 73 -48 105v-600h-103v665h178l257 -497c14 -27 32 -68 47 -103v600zM299 -151v96h118v-162c0 -55 -31 -78 -88 -78h-30v58h57v86h-57z" />
    <glyph glyph-name="uni0146" unicode="&#x146;" horiz-adv-x="593" 
d="M351 516c133 0 182 -73 182 -204v-312h-100v303c0 105 -48 130 -111 130c-98 0 -152 -63 -152 -222v-211h-100v500h100v-112c30 74 85 128 181 128zM238 -151v96h118v-162c0 -55 -31 -78 -88 -78h-30v58h57v86h-57z" />
    <glyph glyph-name="Ncaron" unicode="&#x147;" horiz-adv-x="715" 
d="M401 735h-86l-108 74l46 49l105 -80l105 80l46 -49zM547 665h103v-665h-178l-256 495c-19 38 -36 73 -48 105v-600h-103v665h178l257 -497c14 -27 32 -68 47 -103v600z" />
    <glyph glyph-name="ncaron" unicode="&#x148;" horiz-adv-x="593" 
d="M340 559h-86l-108 74l46 49l105 -80l105 80l46 -49zM351 516c133 0 182 -73 182 -204v-312h-100v303c0 105 -48 130 -111 130c-98 0 -152 -63 -152 -222v-211h-100v500h100v-112c30 74 85 128 181 128z" />
    <glyph glyph-name="Eng" unicode="&#x14a;" horiz-adv-x="715" 
d="M547 665h103v-718c0 -100 -30 -147 -151 -147h-99v80h147v120h-75l-256 495c-19 38 -36 73 -48 105v-600h-103v665h178l257 -497c14 -27 32 -68 47 -103v600z" />
    <glyph glyph-name="eng" unicode="&#x14b;" horiz-adv-x="593" 
d="M347 516c133 0 186 -73 186 -204v-365c0 -100 -30 -147 -151 -147h-99v80h150v423c0 105 -50 130 -117 130c-94 0 -146 -63 -146 -222v-211h-100v500h100v-109c29 73 83 125 177 125z" />
    <glyph glyph-name="Omacron" unicode="&#x14c;" horiz-adv-x="784" 
d="M223 833h338v-75h-338v75zM392 -17c-238 0 -337 154 -337 350c0 193 99 350 337 350s337 -158 337 -350c0 -195 -99 -350 -337 -350zM163 333c0 -175 66 -265 229 -265s229 90 229 265s-66 265 -229 265s-229 -90 -229 -265z" />
    <glyph glyph-name="omacron" unicode="&#x14d;" horiz-adv-x="608" 
d="M135 665h338v-75h-338v75zM304 -16c-174 0 -258 119 -258 267c0 146 84 265 258 265s258 -120 258 -265c0 -147 -84 -267 -258 -267zM147 250c0 -133 49 -186 157 -186s157 53 157 186s-49 186 -157 186s-157 -53 -157 -186z" />
    <glyph glyph-name="Ohungarumlaut" unicode="&#x150;" horiz-adv-x="784" 
d="M406 815l-144 -79l-24 26l117 111zM596 815l-144 -79l-24 26l117 111zM392 -17c-238 0 -337 154 -337 350c0 193 99 350 337 350s337 -158 337 -350c0 -195 -99 -350 -337 -350zM163 333c0 -175 66 -265 229 -265s229 90 229 265s-66 265 -229 265s-229 -90 -229 -265z
" />
    <glyph glyph-name="ohungarumlaut" unicode="&#x151;" horiz-adv-x="608" 
d="M308 643l-144 -79l-24 26l117 111zM498 643l-144 -79l-24 26l117 111zM304 -16c-174 0 -258 119 -258 267c0 146 84 265 258 265s258 -120 258 -265c0 -147 -84 -267 -258 -267zM147 250c0 -133 49 -186 157 -186s157 53 157 186s-49 186 -157 186s-157 -53 -157 -186z
" />
    <glyph glyph-name="OE" unicode="&#x152;" horiz-adv-x="1191" 
d="M729 83h402v-83h-505v93c-44 -68 -120 -110 -244 -110c-228 0 -327 154 -327 350c0 193 99 350 327 350c124 0 200 -43 244 -111v93h502v-83h-399v-201h369v-81h-369v-217zM392 68c163 0 229 90 229 265s-66 265 -229 265s-229 -90 -229 -265s66 -265 229 -265z" />
    <glyph glyph-name="oe" unicode="&#x153;" horiz-adv-x="988" 
d="M708 58c91 0 131 41 145 93h92c-9 -69 -64 -167 -240 -167c-102 0 -166 39 -202 100c-36 -61 -100 -100 -199 -100c-174 0 -258 119 -258 267c0 146 84 265 258 265c100 0 164 -40 200 -102c37 62 102 102 201 102c159 0 241 -113 241 -256c0 -13 0 -25 -2 -38h-394
c8 -126 72 -164 158 -164zM706 442c-86 0 -143 -36 -155 -147h299c-5 101 -55 147 -144 147zM304 64c108 0 157 53 157 186s-49 186 -157 186s-157 -53 -157 -186s49 -186 157 -186z" />
    <glyph glyph-name="Racute" unicode="&#x154;" horiz-adv-x="656" 
d="M445 776l-222 -55l-16 34l210 93zM575 172v-63c0 -54 9 -90 14 -109h-101c-6 17 -13 51 -13 105v52c0 96 -53 131 -139 131h-168v-288h-103v665h318c139 0 213 -70 213 -180c0 -91 -56 -150 -130 -169c67 -22 109 -51 109 -144zM376 364c85 0 112 43 112 114
c0 65 -35 104 -116 104h-204v-218h208z" />
    <glyph glyph-name="racute" unicode="&#x155;" horiz-adv-x="392" 
d="M315 612l-222 -55l-16 34l210 93zM346 508h15v-97h-25c-134 0 -166 -84 -166 -220v-191h-100v500h99v-121c30 74 84 129 177 129z" />
    <glyph glyph-name="uni0156" unicode="&#x156;" horiz-adv-x="656" 
d="M575 172v-63c0 -54 9 -90 14 -109h-101c-6 17 -13 51 -13 105v52c0 96 -53 131 -139 131h-168v-288h-103v665h318c139 0 213 -70 213 -180c0 -91 -56 -150 -130 -169c67 -22 109 -51 109 -144zM376 364c85 0 112 43 112 114c0 65 -35 104 -116 104h-204v-218h208z
M267 -151v96h118v-162c0 -55 -31 -78 -88 -78h-30v58h57v86h-57z" />
    <glyph glyph-name="uni0157" unicode="&#x157;" horiz-adv-x="392" 
d="M346 508h15v-97h-25c-134 0 -166 -84 -166 -220v-191h-100v500h99v-121c30 74 84 129 177 129zM61 -151v96h118v-162c0 -55 -31 -78 -88 -78h-30v58h57v86h-57z" />
    <glyph glyph-name="Rcaron" unicode="&#x158;" horiz-adv-x="656" 
d="M369 735h-86l-108 74l46 49l105 -80l105 80l46 -49zM575 172v-63c0 -54 9 -90 14 -109h-101c-6 17 -13 51 -13 105v52c0 96 -53 131 -139 131h-168v-288h-103v665h318c139 0 213 -70 213 -180c0 -91 -56 -150 -130 -169c67 -22 109 -51 109 -144zM376 364
c85 0 112 43 112 114c0 65 -35 104 -116 104h-204v-218h208z" />
    <glyph glyph-name="rcaron" unicode="&#x159;" horiz-adv-x="392" 
d="M239 559h-86l-108 74l46 49l105 -80l105 80l46 -49zM346 508h15v-97h-25c-134 0 -166 -84 -166 -220v-191h-100v500h99v-121c30 74 84 129 177 129z" />
    <glyph glyph-name="Sacute" unicode="&#x15a;" horiz-adv-x="660" 
d="M449 776l-222 -55l-16 34l210 93zM48 223h100c3 -101 61 -159 192 -159c134 0 166 46 166 114c0 62 -37 96 -112 107l-154 22c-113 16 -172 75 -172 179c0 111 82 197 260 197c187 0 266 -94 275 -213h-100c-10 80 -63 133 -176 133c-108 0 -155 -47 -155 -114
c0 -49 27 -85 89 -94l163 -24c116 -17 186 -70 186 -180c0 -131 -80 -207 -270 -207c-218 0 -292 114 -292 239z" />
    <glyph glyph-name="sacute" unicode="&#x15b;" horiz-adv-x="516" 
d="M372 612l-222 -55l-16 34l210 93zM34 167h93c4 -61 45 -109 142 -109c89 0 111 31 111 77c0 41 -23 64 -76 72l-124 19c-87 13 -134 61 -134 137c0 96 77 154 208 154c129 0 209 -65 216 -159h-100c-5 46 -42 85 -119 85s-108 -31 -108 -71c0 -30 15 -55 69 -63l108 -16
c124 -19 158 -76 158 -153c0 -103 -67 -156 -212 -156c-165 0 -232 81 -232 183z" />
    <glyph glyph-name="Scedilla" unicode="&#x15e;" horiz-adv-x="660" 
d="M610 191c0 -121 -68 -195 -227 -206l19 -72c14 -54 -14 -79 -56 -79h-92v67h75l-21 84c-193 11 -260 119 -260 238h100c3 -101 61 -159 192 -159c134 0 166 46 166 114c0 62 -37 96 -112 107l-154 22c-113 16 -172 75 -172 179c0 111 82 197 260 197
c187 0 266 -94 275 -213h-100c-10 80 -63 133 -176 133c-108 0 -155 -47 -155 -114c0 -49 27 -85 89 -94l163 -24c116 -17 186 -70 186 -180z" />
    <glyph glyph-name="scedilla" unicode="&#x15f;" horiz-adv-x="516" 
d="M478 140c0 -93 -55 -145 -172 -154l19 -73c14 -54 -14 -79 -56 -79h-92v67h75l-22 84c-139 11 -196 88 -196 182h93c4 -61 45 -109 142 -109c89 0 111 31 111 77c0 41 -23 64 -76 72l-124 19c-87 13 -134 61 -134 137c0 96 77 154 208 154c129 0 209 -65 216 -159h-100
c-5 46 -42 85 -119 85s-108 -31 -108 -71c0 -30 15 -55 69 -63l108 -16c124 -19 158 -76 158 -153z" />
    <glyph glyph-name="Scaron" unicode="&#x160;" horiz-adv-x="660" 
d="M179 809l46 49l105 -80l105 80l46 -49l-108 -74h-86zM48 223h100c3 -101 61 -159 192 -159c134 0 166 46 166 114c0 62 -37 96 -112 107l-154 22c-113 16 -172 75 -172 179c0 111 82 197 260 197c187 0 266 -94 275 -213h-100c-10 80 -63 133 -176 133
c-108 0 -155 -47 -155 -114c0 -49 27 -85 89 -94l163 -24c116 -17 186 -70 186 -180c0 -131 -80 -207 -270 -207c-218 0 -292 114 -292 239z" />
    <glyph glyph-name="scaron" unicode="&#x161;" horiz-adv-x="516" 
d="M102 633l46 49l105 -80l105 80l46 -49l-108 -74h-86zM34 167h93c4 -61 45 -109 142 -109c89 0 111 31 111 77c0 41 -23 64 -76 72l-124 19c-87 13 -134 61 -134 137c0 96 77 154 208 154c129 0 209 -65 216 -159h-100c-5 46 -42 85 -119 85s-108 -31 -108 -71
c0 -30 15 -55 69 -63l108 -16c124 -19 158 -76 158 -153c0 -103 -67 -156 -212 -156c-165 0 -232 81 -232 183z" />
    <glyph glyph-name="uni0162" unicode="&#x162;" horiz-adv-x="634" 
d="M369 582v-582h-13l21 -83c14 -54 -14 -79 -56 -79h-92v67h75l-24 95h-14v582h-231v83h564v-83h-230z" />
    <glyph glyph-name="uni0163" unicode="&#x163;" horiz-adv-x="400" 
d="M372 423h-160v-343h150v-80h-80l22 -87c14 -54 -14 -79 -56 -79h-92v67h75l-27 104c-72 14 -92 61 -92 142v276h-95v52l104 36l41 102h50v-113h160v-77z" />
    <glyph glyph-name="Tcaron" unicode="&#x164;" horiz-adv-x="634" 
d="M360 735h-86l-108 74l46 49l105 -80l105 80l46 -49zM599 665v-83h-230v-582h-103v582h-231v83h564z" />
    <glyph glyph-name="tcaron" unicode="&#x165;" horiz-adv-x="404" 
d="M277 780h99l-10 -220h-79zM263 0c-121 0 -151 47 -151 147v276h-95v52l104 36l41 102h50v-113h160v-77h-160v-343h150v-80h-99z" />
    <glyph glyph-name="Tbar" unicode="&#x166;" horiz-adv-x="634" 
d="M599 582h-230v-209h230v-83h-230v-290h-103v290h-231v83h231v209h-231v83h564v-83z" />
    <glyph glyph-name="tbar" unicode="&#x167;" horiz-adv-x="400" 
d="M372 423h-160v-81h160v-77h-160v-185h150v-80h-99c-121 0 -151 47 -151 147v118h-95v77h95v81h-95v52l104 36l41 102h50v-113h160v-77z" />
    <glyph glyph-name="Umacron" unicode="&#x16a;" horiz-adv-x="684" 
d="M173 833h338v-75h-338v75zM65 242v423h103v-408c0 -156 62 -188 174 -188s174 32 174 188v408h103v-423c0 -165 -91 -258 -277 -258s-277 92 -277 258z" />
    <glyph glyph-name="umacron" unicode="&#x16b;" horiz-adv-x="593" 
d="M459 665v-75h-338v75h338zM423 500h100v-500h-100v109c-29 -73 -83 -125 -177 -125c-133 0 -186 73 -186 204v312h100v-303c0 -105 50 -130 117 -130c89 0 146 73 146 222v211z" />
    <glyph glyph-name="Uring" unicode="&#x16e;" horiz-adv-x="684" 
d="M342 709c-51 0 -80 37 -80 79c0 41 29 78 80 78s80 -37 80 -78c0 -42 -29 -79 -80 -79zM309 788c0 -21 15 -35 33 -35s33 14 33 35s-15 34 -33 34s-33 -13 -33 -34zM65 242v423h103v-408c0 -156 62 -188 174 -188s174 32 174 188v408h103v-423c0 -165 -91 -258 -277 -258
s-277 92 -277 258z" />
    <glyph glyph-name="uring" unicode="&#x16f;" horiz-adv-x="593" 
d="M290 558c-43 0 -68 31 -68 67c0 35 25 66 68 66s68 -31 68 -66c0 -36 -25 -67 -68 -67zM290 654c-15 0 -28 -11 -28 -29s13 -30 28 -30s28 12 28 30s-13 29 -28 29zM423 500h100v-500h-100v109c-29 -73 -83 -125 -177 -125c-133 0 -186 73 -186 204v312h100v-303
c0 -105 50 -130 117 -130c89 0 146 73 146 222v211z" />
    <glyph glyph-name="Uhungarumlaut" unicode="&#x170;" horiz-adv-x="684" 
d="M356 815l-144 -79l-24 26l117 111zM546 815l-144 -79l-24 26l117 111zM65 242v423h103v-408c0 -156 62 -188 174 -188s174 32 174 188v408h103v-423c0 -165 -91 -258 -277 -258s-277 92 -277 258z" />
    <glyph glyph-name="uhungarumlaut" unicode="&#x171;" horiz-adv-x="593" 
d="M294 643l-144 -79l-24 26l117 111zM484 643l-144 -79l-24 26l117 111zM423 500h100v-500h-100v109c-29 -73 -83 -125 -177 -125c-133 0 -186 73 -186 204v312h100v-303c0 -105 50 -130 117 -130c89 0 146 73 146 222v211z" />
    <glyph glyph-name="Uogonek" unicode="&#x172;" horiz-adv-x="684" 
d="M619 242c0 -95 -30 -166 -91 -209c-20 -22 -30 -43 -30 -72c0 -40 30 -56 61 -56c23 0 38 3 57 8v-67c-16 -8 -32 -12 -60 -12c-79 0 -131 42 -131 112c0 18 3 33 9 47c-27 -6 -58 -9 -92 -9c-186 0 -277 92 -277 258v423h103v-408c0 -156 62 -188 174 -188
s174 32 174 188v408h103v-423z" />
    <glyph glyph-name="uogonek" unicode="&#x173;" horiz-adv-x="593" 
d="M523 -95c23 0 38 3 57 8v-67c-16 -8 -32 -12 -60 -12c-79 0 -131 42 -131 112c0 37 14 64 34 84v79c-29 -73 -83 -125 -177 -125c-133 0 -186 73 -186 204v312h100v-303c0 -105 50 -130 117 -130c89 0 146 73 146 222v211h100v-500h-53c-6 -12 -8 -24 -8 -39
c0 -40 30 -56 61 -56z" />
    <glyph glyph-name="Wcircumflex" unicode="&#x174;" horiz-adv-x="1016" 
d="M508 812l-105 -80l-46 49l108 74h86l108 -74l-46 -49zM868 665h103l-145 -665h-176l-142 583l-142 -583h-176l-145 665h104l131 -602l147 602h163l147 -602z" />
    <glyph glyph-name="wcircumflex" unicode="&#x175;" horiz-adv-x="884" 
d="M442 622l-105 -80l-46 49l108 74h86l108 -74l-46 -49zM762 500h97l-150 -500h-142l-125 380l-125 -380h-142l-150 500h103l123 -425l144 425h100l144 -425z" />
    <glyph glyph-name="Ycircumflex" unicode="&#x176;" horiz-adv-x="659" 
d="M330 812l-105 -80l-46 49l108 74h86l108 -74l-46 -49zM519 665h115l-253 -445v-220h-103v220l-253 445h117l135 -257c17 -33 35 -66 52 -98c19 32 37 65 54 98z" />
    <glyph glyph-name="ycircumflex" unicode="&#x177;" horiz-adv-x="561" 
d="M281 622l-105 -80l-46 49l108 74h86l108 -74l-46 -49zM441 500h97l-209 -544c-41 -106 -66 -156 -187 -156h-86v80h148l47 120h-36l-189 500h103l135 -357l21 -60l19 60z" />
    <glyph glyph-name="Ydieresis" unicode="&#x178;" horiz-adv-x="659" 
d="M294 825v-90h-116v90h116zM481 825v-90h-116v90h116zM519 665h115l-253 -445v-220h-103v220l-253 445h117l135 -257c17 -33 35 -66 52 -98c19 32 37 65 54 98z" />
    <glyph glyph-name="Zacute" unicode="&#x179;" horiz-adv-x="686" 
d="M462 776l-222 -55l-16 34l210 93zM193 83h433v-83h-561v83l431 499h-428v83h555v-83z" />
    <glyph glyph-name="zacute" unicode="&#x17a;" horiz-adv-x="541" 
d="M393 612l-222 -55l-16 34l210 93zM169 75h327v-75h-446v75l324 350h-320v75h438v-75z" />
    <glyph glyph-name="Zdotaccent" unicode="&#x17b;" horiz-adv-x="686" 
d="M406 825v-90h-126v90h126zM193 83h433v-83h-561v83l431 499h-428v83h555v-83z" />
    <glyph glyph-name="zdotaccent" unicode="&#x17c;" horiz-adv-x="541" 
d="M337 665v-90h-126v90h126zM169 75h327v-75h-446v75l324 350h-320v75h438v-75z" />
    <glyph glyph-name="Zcaron" unicode="&#x17d;" horiz-adv-x="686" 
d="M386 735h-86l-108 74l46 49l105 -80l105 80l46 -49zM193 83h433v-83h-561v83l431 499h-428v83h555v-83z" />
    <glyph glyph-name="zcaron" unicode="&#x17e;" horiz-adv-x="541" 
d="M317 559h-86l-108 74l46 49l105 -80l105 80l46 -49zM169 75h327v-75h-446v75l324 350h-320v75h438v-75z" />
    <glyph glyph-name="florin" unicode="&#x192;" horiz-adv-x="556" 
d="M476 620h-148v-254h133v-77h-133v-342c0 -100 -40 -147 -161 -147h-87v80h148v409h-133v77h133v187c0 100 40 147 161 147h87v-80z" />
    <glyph glyph-name="uni01CD" unicode="&#x1cd;" horiz-adv-x="716" 
d="M403 735h-86l-108 74l46 49l105 -80l105 80l46 -49zM579 0l-59 158h-322l-59 -158h-104l247 665h155l247 -665h-105zM229 241h260l-130 351z" />
    <glyph glyph-name="uni01CE" unicode="&#x1ce;" horiz-adv-x="555" 
d="M129 633l46 49l105 -80l105 80l46 -49l-108 -74h-86zM221 -13c-102 0 -166 55 -166 147c0 80 40 132 152 151l125 21c48 8 70 23 70 58c0 45 -24 76 -110 76c-82 0 -121 -33 -126 -96h-100c1 106 80 173 222 173c138 0 206 -63 206 -155v-248c0 -37 1 -67 5 -114h-91
c-4 39 -6 73 -6 113c-20 -63 -75 -126 -181 -126zM242 64c105 0 160 79 160 179v30c-27 -20 -59 -28 -89 -35l-69 -16c-62 -14 -89 -38 -89 -84c0 -48 35 -74 87 -74z" />
    <glyph glyph-name="uni01CF" unicode="&#x1cf;" horiz-adv-x="505" 
d="M295 735h-86l-108 74l46 49l105 -80l105 80l46 -49zM440 582h-136v-499h136v-83h-375v83h136v499h-136v83h375v-83z" />
    <glyph glyph-name="uni01D0" unicode="&#x1d0;" horiz-adv-x="240" 
d="M-31 633l46 49l105 -80l105 80l46 -49l-108 -74h-86zM70 0v500h100v-500h-100z" />
    <glyph glyph-name="uni01D1" unicode="&#x1d1;" horiz-adv-x="784" 
d="M241 809l46 49l105 -80l105 80l46 -49l-108 -74h-86zM392 -17c-238 0 -337 154 -337 350c0 193 99 350 337 350s337 -158 337 -350c0 -195 -99 -350 -337 -350zM163 333c0 -175 66 -265 229 -265s229 90 229 265s-66 265 -229 265s-229 -90 -229 -265z" />
    <glyph glyph-name="uni01D2" unicode="&#x1d2;" horiz-adv-x="608" 
d="M153 633l46 49l105 -80l105 80l46 -49l-108 -74h-86zM304 -16c-174 0 -258 119 -258 267c0 146 84 265 258 265s258 -120 258 -265c0 -147 -84 -267 -258 -267zM147 250c0 -133 49 -186 157 -186s157 53 157 186s-49 186 -157 186s-157 -53 -157 -186z" />
    <glyph glyph-name="uni01D3" unicode="&#x1d3;" horiz-adv-x="684" 
d="M191 809l46 49l105 -80l105 80l46 -49l-108 -74h-86zM65 242v423h103v-408c0 -156 62 -188 174 -188s174 32 174 188v408h103v-423c0 -165 -91 -258 -277 -258s-277 92 -277 258z" />
    <glyph glyph-name="uni01D4" unicode="&#x1d4;" horiz-adv-x="593" 
d="M333 559h-86l-108 74l46 49l105 -80l105 80l46 -49zM423 500h100v-500h-100v109c-29 -73 -83 -125 -177 -125c-133 0 -186 73 -186 204v312h100v-303c0 -105 50 -130 117 -130c89 0 146 73 146 222v211z" />
    <glyph glyph-name="uni01D5" unicode="&#x1d5;" horiz-adv-x="684" 
d="M173 993h338v-75h-338v75zM190 735v90h116v-90h-116zM377 735v90h116v-90h-116zM65 242v423h103v-408c0 -156 62 -188 174 -188s174 32 174 188v408h103v-423c0 -165 -91 -258 -277 -258s-277 92 -277 258z" />
    <glyph glyph-name="uni01D6" unicode="&#x1d6;" horiz-adv-x="593" 
d="M459 830v-75h-338v75h338zM244 575h-116v90h116v-90zM451 575h-116v90h116v-90zM423 500h100v-500h-100v109c-29 -73 -83 -125 -177 -125c-133 0 -186 73 -186 204v312h100v-303c0 -105 50 -130 117 -130c89 0 146 73 146 222v211z" />
    <glyph glyph-name="uni01D7" unicode="&#x1d7;" horiz-adv-x="684" 
d="M461 936l-222 -55l-16 34l210 93zM190 735v90h116v-90h-116zM377 735v90h116v-90h-116zM65 242v423h103v-408c0 -156 62 -188 174 -188s174 32 174 188v408h103v-423c0 -165 -91 -258 -277 -258s-277 92 -277 258z" />
    <glyph glyph-name="uni01D8" unicode="&#x1d8;" horiz-adv-x="593" 
d="M409 777l-222 -55l-16 34l210 93zM244 665v-90h-116v90h116zM335 575v90h116v-90h-116zM423 500h100v-500h-100v109c-29 -73 -83 -125 -177 -125c-133 0 -186 73 -186 204v312h100v-303c0 -105 50 -130 117 -130c89 0 146 73 146 222v211z" />
    <glyph glyph-name="uni01D9" unicode="&#x1d9;" horiz-adv-x="684" 
d="M191 969l46 49l105 -80l105 80l46 -49l-108 -74h-86zM190 735v90h116v-90h-116zM377 735v90h116v-90h-116zM65 242v423h103v-408c0 -156 62 -188 174 -188s174 32 174 188v408h103v-423c0 -165 -91 -258 -277 -258s-277 92 -277 258z" />
    <glyph glyph-name="uni01DA" unicode="&#x1da;" horiz-adv-x="593" 
d="M333 724h-86l-108 74l46 49l105 -80l105 80l46 -49zM244 665v-90h-116v90h116zM335 575v90h116v-90h-116zM423 500h100v-500h-100v109c-29 -73 -83 -125 -177 -125c-133 0 -186 73 -186 204v312h100v-303c0 -105 50 -130 117 -130c89 0 146 73 146 222v211z" />
    <glyph glyph-name="uni01DB" unicode="&#x1db;" horiz-adv-x="684" 
d="M223 936l28 72l210 -93l-16 -34zM190 735v90h116v-90h-116zM377 735v90h116v-90h-116zM65 242v423h103v-408c0 -156 62 -188 174 -188s174 32 174 188v408h103v-423c0 -165 -91 -258 -277 -258s-277 92 -277 258z" />
    <glyph glyph-name="uni01DC" unicode="&#x1dc;" horiz-adv-x="593" 
d="M410 756l-16 -34l-222 55l28 72zM244 665v-90h-116v90h116zM335 575v90h116v-90h-116zM423 500h100v-500h-100v109c-29 -73 -83 -125 -177 -125c-133 0 -186 73 -186 204v312h100v-303c0 -105 50 -130 117 -130c89 0 146 73 146 222v211z" />
    <glyph glyph-name="uni0218" unicode="&#x218;" horiz-adv-x="660" 
d="M48 223h100c3 -101 61 -159 192 -159c134 0 166 46 166 114c0 62 -37 96 -112 107l-154 22c-113 16 -172 75 -172 179c0 111 82 197 260 197c187 0 266 -94 275 -213h-100c-10 80 -63 133 -176 133c-108 0 -155 -47 -155 -114c0 -49 27 -85 89 -94l163 -24
c116 -17 186 -70 186 -180c0 -131 -80 -207 -270 -207c-218 0 -292 114 -292 239zM271 -151v96h118v-162c0 -55 -31 -78 -88 -78h-30v58h57v86h-57z" />
    <glyph glyph-name="uni0219" unicode="&#x219;" horiz-adv-x="516" 
d="M34 167h93c4 -61 45 -109 142 -109c89 0 111 31 111 77c0 41 -23 64 -76 72l-124 19c-87 13 -134 61 -134 137c0 96 77 154 208 154c129 0 209 -65 216 -159h-100c-5 46 -42 85 -119 85s-108 -31 -108 -71c0 -30 15 -55 69 -63l108 -16c124 -19 158 -76 158 -153
c0 -103 -67 -156 -212 -156c-165 0 -232 81 -232 183zM194 -151v96h118v-162c0 -55 -31 -78 -88 -78h-30v58h57v86h-57z" />
    <glyph glyph-name="uni021A" unicode="&#x21a;" horiz-adv-x="634" 
d="M599 665v-83h-230v-582h-103v582h-231v83h564zM246 -147v96h118v-162c0 -55 -31 -78 -88 -78h-30v58h57v86h-57z" />
    <glyph glyph-name="uni021B" unicode="&#x21b;" horiz-adv-x="400" 
d="M263 0c-121 0 -151 47 -151 147v276h-95v52l104 36l41 102h50v-113h160v-77h-160v-343h150v-80h-99zM173 -151v96h118v-162c0 -55 -31 -78 -88 -78h-30v58h57v86h-57z" />
    <glyph glyph-name="uni0237" unicode="&#x237;" horiz-adv-x="240" 
d="M-75 -200v80h148v620h100v-553c0 -100 -40 -147 -161 -147h-87z" />
    <glyph glyph-name="circumflex" unicode="&#x2c6;" horiz-adv-x="600" 
d="M30 591l108 74h86l108 -74l-46 -49l-105 80l-105 -80z" />
    <glyph glyph-name="caron" unicode="&#x2c7;" horiz-adv-x="600" 
d="M85 633l46 49l105 -80l105 80l46 -49l-108 -74h-86z" />
    <glyph glyph-name="breve" unicode="&#x2d8;" horiz-adv-x="600" 
d="M85 665h60c3 -32 26 -52 69 -52s66 20 69 52h60c-5 -49 -37 -107 -129 -107s-124 58 -129 107z" />
    <glyph glyph-name="dotaccent" unicode="&#x2d9;" horiz-adv-x="600" 
d="M60 575v90h126v-90h-126z" />
    <glyph glyph-name="ring" unicode="&#x2da;" horiz-adv-x="306" 
d="M153 558c-43 0 -68 31 -68 67c0 35 25 66 68 66s68 -31 68 -66c0 -36 -25 -67 -68 -67zM125 625c0 -18 13 -30 28 -30s28 12 28 30s-13 29 -28 29s-28 -11 -28 -29z" />
    <glyph glyph-name="ogonek" unicode="&#x2db;" horiz-adv-x="600" 
d="M186 -166c-79 0 -131 42 -131 112c0 73 57 108 98 128l16 -30c-28 -27 -41 -49 -41 -83c0 -40 30 -56 61 -56c23 0 38 3 57 8v-67c-16 -8 -32 -12 -60 -12z" />
    <glyph glyph-name="tilde" unicode="&#x2dc;" horiz-adv-x="600" 
d="M319 569c-46 0 -118 43 -143 43c-12 0 -19 -7 -19 -19v-22h-72v29c0 50 40 67 82 67c60 0 114 -43 143 -43c12 0 19 7 19 19v22h72v-29c0 -50 -40 -67 -82 -67z" />
    <glyph glyph-name="hungarumlaut" unicode="&#x2dd;" horiz-adv-x="600" 
d="M236 643l-144 -79l-24 26l117 111zM426 643l-144 -79l-24 26l117 111z" />
    <glyph glyph-name="gravecomb" unicode="&#x300;" 
d="M-268 612l28 72l210 -93l-16 -34z" />
    <glyph glyph-name="acutecomb" unicode="&#x301;" 
d="M-32 612l-222 -55l-16 34l210 93z" />
    <glyph glyph-name="uni0302" unicode="&#x302;" 
d="M-332 591l108 74h86l108 -74l-46 -49l-105 80l-105 -80z" />
    <glyph glyph-name="tildecomb" unicode="&#x303;" 
d="M-159 569c-46 0 -118 43 -143 43c-12 0 -19 -7 -19 -19v-22h-72v29c0 50 40 67 82 67c60 0 114 -43 143 -43c12 0 19 7 19 19v22h72v-29c0 -50 -40 -67 -82 -67z" />
    <glyph glyph-name="uni0304" unicode="&#x304;" 
d="M-436 665h338v-75h-338v75z" />
    <glyph glyph-name="uni0306" unicode="&#x306;" 
d="M-343 665h60c3 -32 26 -52 69 -52s66 20 69 52h60c-5 -49 -37 -107 -129 -107s-124 58 -129 107z" />
    <glyph glyph-name="uni0307" unicode="&#x307;" 
d="M-186 575v90h126v-90h-126z" />
    <glyph glyph-name="uni0308" unicode="&#x308;" 
d="M-363 575v90h116v-90h-116zM-156 575v90h116v-90h-116z" />
    <glyph glyph-name="uni030A" unicode="&#x30a;" 
d="M-153 558c-43 0 -68 31 -68 67c0 35 25 66 68 66s68 -31 68 -66c0 -36 -25 -67 -68 -67zM-181 625c0 -18 13 -30 28 -30s28 12 28 30s-13 29 -28 29s-28 -11 -28 -29z" />
    <glyph glyph-name="uni030B" unicode="&#x30b;" 
d="M-257 643l-144 -79l-24 26l117 111zM-67 643l-144 -79l-24 26l117 111z" />
    <glyph glyph-name="uni030C" unicode="&#x30c;" 
d="M-387 633l46 49l105 -80l105 80l46 -49l-108 -74h-86z" />
    <glyph glyph-name="uni0312" unicode="&#x312;" 
d="M-85 657v-96h-118v162c0 55 31 78 88 78h30v-58h-57v-86h57z" />
    <glyph glyph-name="uni0326" unicode="&#x326;" 
d="M-133 -151v96h118v-162c0 -55 -31 -78 -88 -78h-30v58h57v86h-57z" />
    <glyph glyph-name="uni0327" unicode="&#x327;" 
d="M-237 -166v67h75l-34 133h76l31 -121c14 -54 -14 -79 -56 -79h-92z" />
    <glyph glyph-name="uni0328" unicode="&#x328;" 
d="M-132 -166c-79 0 -131 42 -131 112c0 73 57 108 98 128l16 -30c-28 -27 -41 -49 -41 -83c0 -40 30 -56 61 -56c23 0 38 3 57 8v-67c-16 -8 -32 -12 -60 -12z" />
    <glyph glyph-name="uni0394" unicode="&#x394;" horiz-adv-x="705" 
d="M420 665l235 -579v-86h-605v86l235 579h135zM155 83h394l-197 490z" />
    <glyph glyph-name="uni03A9" unicode="&#x3a9;" horiz-adv-x="808" 
d="M50 0v82h181c-110 48 -166 142 -166 269c0 182 99 332 339 332s339 -150 339 -332c0 -127 -56 -221 -166 -269h181v-82h-708zM404 90c165 0 231 85 231 256s-66 257 -231 257s-231 -86 -231 -257s66 -256 231 -256z" />
    <glyph glyph-name="pi" unicode="&#x3c0;" horiz-adv-x="709" 
d="M664 423h-130v-343h120v-80h-69c-121 0 -151 47 -151 147v276h-149v-423h-100v423h-140v77h619v-77z" />
    <glyph glyph-name="Wgrave" unicode="&#x1e80;" horiz-adv-x="1016" 
d="M627 755l-16 -34l-222 55l28 72zM868 665h103l-145 -665h-176l-142 583l-142 -583h-176l-145 665h104l131 -602l147 602h163l147 -602z" />
    <glyph glyph-name="wgrave" unicode="&#x1e81;" horiz-adv-x="884" 
d="M562 591l-16 -34l-222 55l28 72zM762 500h97l-150 -500h-142l-125 380l-125 -380h-142l-150 500h103l123 -425l144 425h100l144 -425z" />
    <glyph glyph-name="Wacute" unicode="&#x1e82;" horiz-adv-x="1016" 
d="M627 776l-222 -55l-16 34l210 93zM868 665h103l-145 -665h-176l-142 583l-142 -583h-176l-145 665h104l131 -602l147 602h163l147 -602z" />
    <glyph glyph-name="wacute" unicode="&#x1e83;" horiz-adv-x="884" 
d="M561 612l-222 -55l-16 34l210 93zM762 500h97l-150 -500h-142l-125 380l-125 -380h-142l-150 500h103l123 -425l144 425h100l144 -425z" />
    <glyph glyph-name="Wdieresis" unicode="&#x1e84;" horiz-adv-x="1016" 
d="M472 825v-90h-116v90h116zM659 825v-90h-116v90h116zM868 665h103l-145 -665h-176l-142 583l-142 -583h-176l-145 665h104l131 -602l147 602h163l147 -602z" />
    <glyph glyph-name="wdieresis" unicode="&#x1e85;" horiz-adv-x="884" 
d="M396 665v-90h-116v90h116zM603 665v-90h-116v90h116zM762 500h97l-150 -500h-142l-125 380l-125 -380h-142l-150 500h103l123 -425l144 425h100l144 -425z" />
    <glyph glyph-name="Ygrave" unicode="&#x1ef2;" horiz-adv-x="659" 
d="M449 755l-16 -34l-222 55l28 72zM519 665h115l-253 -445v-220h-103v220l-253 445h117l135 -257c17 -33 35 -66 52 -98c19 32 37 65 54 98z" />
    <glyph glyph-name="ygrave" unicode="&#x1ef3;" horiz-adv-x="561" 
d="M401 591l-16 -34l-222 55l28 72zM441 500h97l-209 -544c-41 -106 -66 -156 -187 -156h-86v80h148l47 120h-36l-189 500h103l135 -357l21 -60l19 60z" />
    <glyph glyph-name="endash" unicode="&#x2013;" horiz-adv-x="559" 
d="M30 288h500v-75h-500v75z" />
    <glyph glyph-name="emdash" unicode="&#x2014;" horiz-adv-x="759" 
d="M30 288h700v-75h-700v75z" />
    <glyph glyph-name="quoteleft" unicode="&#x2018;" horiz-adv-x="148" 
d="M133 521v-96h-118v162c0 55 31 78 88 78h30v-58h-57v-86h57z" />
    <glyph glyph-name="quoteright" unicode="&#x2019;" horiz-adv-x="148" 
d="M15 569v96h118v-162c0 -55 -31 -78 -88 -78h-30v58h57v86h-57z" />
    <glyph glyph-name="quotesinglbase" unicode="&#x201a;" horiz-adv-x="148" 
d="M15 0v96h118v-162c0 -55 -31 -78 -88 -78h-30v58h57v86h-57z" />
    <glyph glyph-name="quotedblleft" unicode="&#x201c;" horiz-adv-x="306" 
d="M133 521v-96h-118v162c0 55 31 78 88 78h30v-58h-57v-86h57zM291 521v-96h-118v162c0 55 31 78 88 78h30v-58h-57v-86h57z" />
    <glyph glyph-name="quotedblright" unicode="&#x201d;" horiz-adv-x="306" 
d="M15 569v96h118v-162c0 -55 -31 -78 -88 -78h-30v58h57v86h-57zM173 569v96h118v-162c0 -55 -31 -78 -88 -78h-30v58h57v86h-57z" />
    <glyph glyph-name="quotedblbase" unicode="&#x201e;" horiz-adv-x="148" 
d="M15 0v96h118v-162c0 -55 -31 -78 -88 -78h-30v58h57v86h-57z" />
    <glyph glyph-name="dagger" unicode="&#x2020;" horiz-adv-x="570" 
d="M485 590v-90h-150v-317h-99v317h-151v90h151v155h99v-155h150z" />
    <glyph glyph-name="daggerdbl" unicode="&#x2021;" horiz-adv-x="570" 
d="M485 523h-150v-118h150v-90h-150v-132h-99v132h-151v90h151v118h-151v90h151v132h99v-132h150v-90z" />
    <glyph glyph-name="bullet" unicode="&#x2022;" horiz-adv-x="378" 
d="M189 160c-53 0 -89 36 -89 90c0 53 36 89 89 89s89 -36 89 -89c0 -54 -36 -90 -89 -90z" />
    <glyph glyph-name="ellipsis" unicode="&#x2026;" horiz-adv-x="549" 
d="M15 0v96h119v-96h-119zM215 0v96h119v-96h-119zM415 0v96h119v-96h-119z" />
    <glyph glyph-name="perthousand" unicode="&#x2030;" horiz-adv-x="1190" 
d="M50 0v12l606 581h-279v-201h-287v273h627c36 0 57 -15 57 -46c0 -18 -7 -35 -35 -62l-583 -557h-106zM167 464h134v129h-134v-129zM483 0v272h287v-272h-287zM853 0v272h287v-272h-287zM560 72h134v129h-134v-129zM930 72h134v129h-134v-129z" />
    <glyph glyph-name="guilsinglleft" unicode="&#x2039;" horiz-adv-x="425" 
d="M55 246v8l203 246h117l-211 -250l211 -250h-117z" />
    <glyph glyph-name="guilsinglright" unicode="&#x203a;" horiz-adv-x="425" 
d="M370 246l-203 -246h-117l211 250l-211 250h117l203 -246v-8z" />
    <glyph glyph-name="Euro" unicode="&#x20ac;" horiz-adv-x="895" 
d="M558 427v-75h-478v75h83c30 149 136 256 331 256c212 0 303 -100 318 -265h-105c-13 114 -77 180 -215 180c-127 0 -197 -59 -220 -171h286zM709 259h106c-11 -169 -104 -276 -324 -276c-187 0 -289 96 -323 235h-88v75h478v-75h-282c26 -99 95 -150 213 -150
c144 0 211 72 220 191z" />
    <glyph glyph-name="trademark" unicode="&#x2122;" horiz-adv-x="1367" 
d="M1302 665v-665h-103v585l-204 -585h-136l-204 585v-585h-103v582h-183v-582h-103v582h-231v83h696l197 -565l197 565h177z" />
    <glyph glyph-name="arrowleft" unicode="&#x2190;" horiz-adv-x="769" 
d="M719 336v-77h-517l216 -216l-57 -57l-311 312l311 311l57 -57l-217 -216h518z" />
    <glyph glyph-name="arrowup" unicode="&#x2191;" horiz-adv-x="723" 
d="M673 358l-57 -57l-212 213v-514h-85v513l-212 -212l-57 57l312 311z" />
    <glyph glyph-name="arrowright" unicode="&#x2192;" horiz-adv-x="769" 
d="M408 609l311 -311l-311 -312l-57 57l216 216h-517v77h518l-217 216z" />
    <glyph glyph-name="arrowdown" unicode="&#x2193;" horiz-adv-x="723" 
d="M616 343l57 -57l-311 -311l-312 311l57 57l212 -212v513h85v-514z" />
    <glyph glyph-name="uni2196" unicode="&#x2196;" horiz-adv-x="603" 
d="M553 57l-60 -60l-363 363v-300h-80v440h440v-80h-300z" />
    <glyph glyph-name="uni2197" unicode="&#x2197;" horiz-adv-x="603" 
d="M113 500h440v-440h-80v300l-363 -363l-60 60l363 363h-300v80z" />
    <glyph glyph-name="uni2198" unicode="&#x2198;" horiz-adv-x="603" 
d="M473 440h80v-440h-440v80h300l-363 363l60 60l363 -363v300z" />
    <glyph glyph-name="uni2199" unicode="&#x2199;" horiz-adv-x="603" 
d="M553 443l-363 -363h300v-80h-440v440h80v-300l363 363z" />
    <glyph glyph-name="partialdiff" unicode="&#x2202;" horiz-adv-x="606" 
d="M46 250c0 147 72 266 233 266c90 0 151 -37 185 -103c0 93 -77 209 -232 260l37 72c216 -66 291 -211 291 -441c0 -218 -86 -320 -256 -320c-183 0 -258 119 -258 266zM147 250c0 -124 42 -186 153 -186c105 0 164 58 164 186s-59 186 -164 186
c-111 0 -153 -62 -153 -186z" />
    <glyph glyph-name="product" unicode="&#x220f;" horiz-adv-x="811" 
d="M736 745v-90h-131v-855h-99v855h-181v-855h-99v855h-131v90h641z" />
    <glyph glyph-name="summation" unicode="&#x2211;" horiz-adv-x="640" 
d="M560 745v-90h-363l272 -382l-272 -383h363v-90h-480v90l272 383l-272 382v90h480z" />
    <glyph glyph-name="minus" unicode="&#x2212;" horiz-adv-x="570" 
d="M85 288h400v-75h-400v75z" />
    <glyph glyph-name="radical" unicode="&#x221a;" horiz-adv-x="939" 
d="M879 745v-90h-180l-282 -855h-153l-184 449h98l160 -391l293 887h248z" />
    <glyph glyph-name="infinity" unicode="&#x221e;" horiz-adv-x="842" 
d="M245 106c-104 0 -165 76 -165 164c0 85 61 160 165 160c105 0 166 -75 166 -160c0 -88 -61 -164 -166 -164zM596 106c-104 0 -165 76 -165 164c0 85 61 160 165 160c105 0 166 -75 166 -160c0 -88 -61 -164 -166 -164zM156 269c0 -56 41 -92 89 -92c49 0 90 36 90 92
c0 58 -41 90 -90 90c-48 0 -89 -32 -89 -90zM507 269c0 -56 41 -92 89 -92c49 0 90 36 90 92c0 58 -41 90 -90 90c-48 0 -89 -32 -89 -90z" />
    <glyph glyph-name="integral" unicode="&#x222b;" horiz-adv-x="665" 
d="M80 -200v90h149l103 708c15 100 40 147 161 147h92v-90h-150l-103 -708c-15 -100 -40 -147 -161 -147h-91z" />
    <glyph glyph-name="approxequal" unicode="&#x2248;" horiz-adv-x="506" 
d="M343 300c-87 0 -132 76 -167 76c-12 0 -19 -7 -19 -22v-52h-72v72c0 50 33 70 78 70c91 0 128 -76 167 -76c12 0 19 7 19 22v52h72v-72c0 -50 -43 -70 -78 -70zM343 74c-87 0 -132 76 -167 76c-12 0 -19 -7 -19 -22v-52h-72v72c0 50 33 70 78 70c91 0 128 -76 167 -76
c12 0 19 7 19 22v52h72v-72c0 -50 -43 -70 -78 -70z" />
    <glyph glyph-name="notequal" unicode="&#x2260;" horiz-adv-x="490" 
d="M405 293h-109l-30 -85h139v-75h-166l-36 -101h-70l36 101h-84v75h111l30 85h-141v75h168l35 97h70l-35 -97h82v-75z" />
    <glyph glyph-name="lessequal" unicode="&#x2264;" horiz-adv-x="585" 
d="M500 462v-73l-356 -60l356 -60v-73l-415 70v126zM85 60v75h415v-75h-415z" />
    <glyph glyph-name="greaterequal" unicode="&#x2265;" horiz-adv-x="585" 
d="M85 462l415 -70v-126l-415 -70v73l356 60l-356 60v73zM85 60v75h415v-75h-415z" />
    <glyph glyph-name="filledbox" unicode="&#x25a0;" horiz-adv-x="766" 
d="M50 665h666v-665h-666v665z" />
    <glyph glyph-name="triagup" unicode="&#x25b2;" horiz-adv-x="844" 
d="M422 665l372 -665h-744z" />
    <glyph glyph-name="lozenge" unicode="&#x25ca;" horiz-adv-x="635" 
d="M393 665l162 -332l-162 -333h-151l-162 333l162 332h151zM318 50l137 283l-137 282l-138 -282z" />
    <glyph glyph-name="uni25CF" unicode="&#x25cf;" horiz-adv-x="801" 
d="M402 -18c-196 0 -352 156 -352 352c0 193 156 349 352 349c193 0 349 -156 349 -349c0 -196 -156 -352 -349 -352z" />
    <glyph glyph-name="G.ss03" horiz-adv-x="786" 
d="M378 -17c-224 0 -323 152 -323 350c0 197 105 350 341 350c205 0 304 -90 322 -252h-107c-14 111 -78 167 -219 167c-161 0 -229 -92 -229 -265c0 -171 64 -265 230 -265c156 0 211 88 224 189h-281v76h281c65 0 100 -35 100 -100v-233h-93v141
c-31 -96 -117 -158 -246 -158z" />
    <glyph glyph-name="Gbreve.ss03" horiz-adv-x="786" 
d="M259 843h60c3 -32 26 -52 69 -52s66 20 69 52h60c-5 -49 -37 -107 -129 -107s-124 58 -129 107zM378 -17c-224 0 -323 152 -323 350c0 197 105 350 341 350c205 0 304 -90 322 -252h-107c-14 111 -78 167 -219 167c-161 0 -229 -92 -229 -265c0 -171 64 -265 230 -265
c156 0 211 88 224 189h-281v76h281c65 0 100 -35 100 -100v-233h-93v141c-31 -96 -117 -158 -246 -158z" />
    <glyph glyph-name="uni0122.ss03" horiz-adv-x="786" 
d="M378 -17c-224 0 -323 152 -323 350c0 197 105 350 341 350c205 0 304 -90 322 -252h-107c-14 111 -78 167 -219 167c-161 0 -229 -92 -229 -265c0 -171 64 -265 230 -265c156 0 211 88 224 189h-281v76h281c65 0 100 -35 100 -100v-233h-93v141
c-31 -96 -117 -158 -246 -158zM329 -151v96h118v-162c0 -55 -31 -78 -88 -78h-30v58h57v86h-57z" />
    <glyph glyph-name="Gdotaccent.ss03" horiz-adv-x="786" 
d="M325 735v90h126v-90h-126zM378 -17c-224 0 -323 152 -323 350c0 197 105 350 341 350c205 0 304 -90 322 -252h-107c-14 111 -78 167 -219 167c-161 0 -229 -92 -229 -265c0 -171 64 -265 230 -265c156 0 211 88 224 189h-281v76h281c65 0 100 -35 100 -100v-233h-93v141
c-31 -96 -117 -158 -246 -158z" />
    <glyph glyph-name="Q.ss03" horiz-adv-x="784" 
d="M729 333c0 -120 -37 -224 -121 -287l61 -87l-81 -56l-69 98c-37 -12 -79 -18 -127 -18c-238 0 -337 154 -337 350c0 193 99 350 337 350s337 -158 337 -350zM392 68c28 0 53 3 75 8l-92 131l81 56l99 -142c46 44 66 115 66 212c0 175 -66 265 -229 265
s-229 -90 -229 -265s66 -265 229 -265z" />
    <glyph glyph-name="R.ss03" horiz-adv-x="651" 
d="M385 288l83 -204h128v-84h-136c-49 0 -72 11 -90 57l-93 231h-109v-288h-103v665h318c139 0 213 -67 213 -188c0 -97 -49 -187 -211 -189zM168 582v-218h204c85 0 116 41 116 112c0 65 -35 106 -116 106h-204z" />
    <glyph glyph-name="Racute.ss03" horiz-adv-x="651" 
d="M445 776l-222 -55l-16 34l210 93zM385 288l83 -204h128v-84h-136c-49 0 -72 11 -90 57l-93 231h-109v-288h-103v665h318c139 0 213 -67 213 -188c0 -97 -49 -187 -211 -189zM168 582v-218h204c85 0 116 41 116 112c0 65 -35 106 -116 106h-204z" />
    <glyph glyph-name="Rcaron.ss03" horiz-adv-x="651" 
d="M369 735h-86l-108 74l46 49l105 -80l105 80l46 -49zM385 288l83 -204h128v-84h-136c-49 0 -72 11 -90 57l-93 231h-109v-288h-103v665h318c139 0 213 -67 213 -188c0 -97 -49 -187 -211 -189zM168 582v-218h204c85 0 116 41 116 112c0 65 -35 106 -116 106h-204z" />
    <glyph glyph-name="uni0156.ss03" horiz-adv-x="651" 
d="M385 288l83 -204h128v-84h-136c-49 0 -72 11 -90 57l-93 231h-109v-288h-103v665h318c139 0 213 -67 213 -188c0 -97 -49 -187 -211 -189zM168 582v-218h204c85 0 116 41 116 112c0 65 -35 106 -116 106h-204zM267 -151v96h118v-162c0 -55 -31 -78 -88 -78h-30v58h57v86
h-57z" />
    <glyph glyph-name="i.loclTRK" horiz-adv-x="240" 
d="M57 575v90h126v-90h-126zM70 0v500h100v-500h-100z" />
    <glyph glyph-name="a.ss01" horiz-adv-x="634" 
d="M464 500h100v-500h-100v86c-34 -65 -95 -102 -185 -102c-161 0 -233 119 -233 266s72 266 233 266c90 0 151 -37 185 -102v86zM300 64c105 0 164 58 164 186s-59 186 -164 186c-111 0 -153 -62 -153 -186s42 -186 153 -186z" />
    <glyph glyph-name="aacute.ss01" horiz-adv-x="634" 
d="M436 612l-222 -55l-16 34l210 93zM464 500h100v-500h-100v86c-34 -65 -95 -102 -185 -102c-161 0 -233 119 -233 266s72 266 233 266c90 0 151 -37 185 -102v86zM300 64c105 0 164 58 164 186s-59 186 -164 186c-111 0 -153 -62 -153 -186s42 -186 153 -186z" />
    <glyph glyph-name="abreve.ss01" horiz-adv-x="634" 
d="M317 558c-92 0 -124 58 -129 107h60c3 -32 26 -52 69 -52s66 20 69 52h60c-5 -49 -37 -107 -129 -107zM464 500h100v-500h-100v86c-34 -65 -95 -102 -185 -102c-161 0 -233 119 -233 266s72 266 233 266c90 0 151 -37 185 -102v86zM300 64c105 0 164 58 164 186
s-59 186 -164 186c-111 0 -153 -62 -153 -186s42 -186 153 -186z" />
    <glyph glyph-name="acircumflex.ss01" horiz-adv-x="634" 
d="M317 622l-105 -80l-46 49l108 74h86l108 -74l-46 -49zM464 500h100v-500h-100v86c-34 -65 -95 -102 -185 -102c-161 0 -233 119 -233 266s72 266 233 266c90 0 151 -37 185 -102v86zM300 64c105 0 164 58 164 186s-59 186 -164 186c-111 0 -153 -62 -153 -186
s42 -186 153 -186z" />
    <glyph glyph-name="adieresis.ss01" horiz-adv-x="634" 
d="M271 665v-90h-116v90h116zM478 665v-90h-116v90h116zM464 500h100v-500h-100v86c-34 -65 -95 -102 -185 -102c-161 0 -233 119 -233 266s72 266 233 266c90 0 151 -37 185 -102v86zM300 64c105 0 164 58 164 186s-59 186 -164 186c-111 0 -153 -62 -153 -186
s42 -186 153 -186z" />
    <glyph glyph-name="agrave.ss01" horiz-adv-x="634" 
d="M437 591l-16 -34l-222 55l28 72zM464 500h100v-500h-100v86c-34 -65 -95 -102 -185 -102c-161 0 -233 119 -233 266s72 266 233 266c90 0 151 -37 185 -102v86zM300 64c105 0 164 58 164 186s-59 186 -164 186c-111 0 -153 -62 -153 -186s42 -186 153 -186z" />
    <glyph glyph-name="amacron.ss01" horiz-adv-x="634" 
d="M486 665v-75h-338v75h338zM464 500h100v-500h-100v86c-34 -65 -95 -102 -185 -102c-161 0 -233 119 -233 266s72 266 233 266c90 0 151 -37 185 -102v86zM300 64c105 0 164 58 164 186s-59 186 -164 186c-111 0 -153 -62 -153 -186s42 -186 153 -186z" />
    <glyph glyph-name="aogonek.ss01" horiz-adv-x="634" 
d="M569 -95c23 0 38 3 57 8v-67c-16 -8 -32 -12 -60 -12c-79 0 -131 42 -131 112c0 34 12 59 29 79v61c-34 -65 -95 -102 -185 -102c-161 0 -233 119 -233 266s72 266 233 266c90 0 151 -37 185 -102v86h100v-500h-48c-6 -12 -8 -24 -8 -39c0 -40 30 -56 61 -56zM300 64
c105 0 164 58 164 186s-59 186 -164 186c-111 0 -153 -62 -153 -186s42 -186 153 -186z" />
    <glyph glyph-name="aring.ss01" horiz-adv-x="634" 
d="M317 558c-43 0 -68 31 -68 67c0 35 25 66 68 66s68 -31 68 -66c0 -36 -25 -67 -68 -67zM317 654c-15 0 -28 -11 -28 -29s13 -30 28 -30s28 12 28 30s-13 29 -28 29zM464 500h100v-500h-100v86c-34 -65 -95 -102 -185 -102c-161 0 -233 119 -233 266s72 266 233 266
c90 0 151 -37 185 -102v86zM300 64c105 0 164 58 164 186s-59 186 -164 186c-111 0 -153 -62 -153 -186s42 -186 153 -186z" />
    <glyph glyph-name="atilde.ss01" horiz-adv-x="634" 
d="M231 593v-22h-72v29c0 50 40 67 82 67c60 0 114 -43 143 -43c12 0 19 7 19 19v22h72v-29c0 -50 -40 -67 -82 -67c-46 0 -118 43 -143 43c-12 0 -19 -7 -19 -19zM464 500h100v-500h-100v86c-34 -65 -95 -102 -185 -102c-161 0 -233 119 -233 266s72 266 233 266
c90 0 151 -37 185 -102v86zM300 64c105 0 164 58 164 186s-59 186 -164 186c-111 0 -153 -62 -153 -186s42 -186 153 -186z" />
    <glyph glyph-name="g.ss02" horiz-adv-x="569" 
d="M386 62c101 0 153 -51 153 -132c0 -79 -58 -142 -249 -142c-149 0 -230 51 -230 132c0 44 30 81 66 95c-32 15 -50 41 -50 73c0 56 43 88 90 95c-56 25 -99 70 -99 148c0 130 95 175 200 175c85 0 135 -39 159 -81v75h88v-185c0 -107 -84 -171 -222 -171h-73
c-46 0 -66 -16 -66 -43c0 -25 20 -39 49 -39h184zM291 434c-77 0 -132 -29 -132 -110c0 -79 51 -107 132 -107c84 0 131 28 131 108c0 70 -54 109 -131 109zM290 -147c112 0 152 29 152 72c0 33 -22 60 -70 60h-164c-35 0 -58 -23 -58 -55c0 -51 45 -77 140 -77z" />
    <glyph glyph-name="gbreve.ss02" horiz-adv-x="569" 
d="M285 558c-92 0 -124 58 -129 107h60c3 -32 26 -52 69 -52s66 20 69 52h60c-5 -49 -37 -107 -129 -107zM386 62c101 0 153 -51 153 -132c0 -79 -58 -142 -249 -142c-149 0 -230 51 -230 132c0 44 30 81 66 95c-32 15 -50 41 -50 73c0 56 43 88 90 95
c-56 25 -99 70 -99 148c0 130 95 175 200 175c85 0 135 -39 159 -81v75h88v-185c0 -107 -84 -171 -222 -171h-73c-46 0 -66 -16 -66 -43c0 -25 20 -39 49 -39h184zM291 434c-77 0 -132 -29 -132 -110c0 -79 51 -107 132 -107c84 0 131 28 131 108c0 70 -54 109 -131 109z
M290 -147c112 0 152 29 152 72c0 33 -22 60 -70 60h-164c-35 0 -58 -23 -58 -55c0 -51 45 -77 140 -77z" />
    <glyph glyph-name="uni0123.ss02" horiz-adv-x="569" 
d="M344 657v-96h-118v162c0 55 31 78 88 78h30v-58h-57v-86h57zM386 62c101 0 153 -51 153 -132c0 -79 -58 -142 -249 -142c-149 0 -230 51 -230 132c0 44 30 81 66 95c-32 15 -50 41 -50 73c0 56 43 88 90 95c-56 25 -99 70 -99 148c0 130 95 175 200 175
c85 0 135 -39 159 -81v75h88v-185c0 -107 -84 -171 -222 -171h-73c-46 0 -66 -16 -66 -43c0 -25 20 -39 49 -39h184zM291 434c-77 0 -132 -29 -132 -110c0 -79 51 -107 132 -107c84 0 131 28 131 108c0 70 -54 109 -131 109zM290 -147c112 0 152 29 152 72
c0 33 -22 60 -70 60h-164c-35 0 -58 -23 -58 -55c0 -51 45 -77 140 -77z" />
    <glyph glyph-name="gdotaccent.ss02" horiz-adv-x="569" 
d="M348 665v-90h-126v90h126zM386 62c101 0 153 -51 153 -132c0 -79 -58 -142 -249 -142c-149 0 -230 51 -230 132c0 44 30 81 66 95c-32 15 -50 41 -50 73c0 56 43 88 90 95c-56 25 -99 70 -99 148c0 130 95 175 200 175c85 0 135 -39 159 -81v75h88v-185
c0 -107 -84 -171 -222 -171h-73c-46 0 -66 -16 -66 -43c0 -25 20 -39 49 -39h184zM291 434c-77 0 -132 -29 -132 -110c0 -79 51 -107 132 -107c84 0 131 28 131 108c0 70 -54 109 -131 109zM290 -147c112 0 152 29 152 72c0 33 -22 60 -70 60h-164c-35 0 -58 -23 -58 -55
c0 -51 45 -77 140 -77z" />
    <glyph glyph-name="f_f_j" horiz-adv-x="897" 
d="M665 500v-77h-135v-423h-100v423h-213v-423h-100v423h-85v52l85 29v73c0 80 40 123 161 123h89v-75h-158v-125h221v77c0 80 40 123 161 123h248v-75h-317v-125h143zM743 500h100v-553c0 -100 -40 -147 -161 -147h-87v80h148v620z" />
    <glyph glyph-name="f_f_t" horiz-adv-x="1038" 
d="M1010 423h-160v-343h150v-80h-99c-121 0 -151 47 -151 147v276h-220v-423h-100v423h-213v-423h-100v423h-85v52l85 29v73c0 80 40 123 161 123h89v-75h-158v-125h209l12 4v73c0 80 40 123 161 123h79v-75h-148v-125h233l45 113h50v-113h160v-77z" />
    <glyph glyph-name="f_j" horiz-adv-x="604" 
d="M117 0v423h-85v52l85 29v73c0 80 40 123 161 123h268v-75h-337v-125h167v-77h-159v-423h-100zM302 -200v80h148v620h100v-553c0 -100 -40 -147 -161 -147h-87z" />
    <glyph glyph-name="f_t" horiz-adv-x="725" 
d="M697 423h-160v-343h150v-80h-99c-121 0 -151 47 -151 147v276h-220v-423h-100v423h-85v52l85 29v73c0 80 40 123 161 123h79v-75h-148v-125h233l45 113h50v-113h160v-77z" />
    <glyph glyph-name="r_t" horiz-adv-x="720" 
d="M692 423h-160v-343h150v-80h-99c-121 0 -151 47 -151 147v342l50 124h50v-113h160v-77zM169 379c30 74 84 129 177 129h15v-97h-25c-134 0 -166 -84 -166 -220v-191h-100v500h99v-121z" />
    <glyph glyph-name="r_t_t" horiz-adv-x="1053" 
d="M1025 423h-160v-343h150v-80h-99c-121 0 -151 47 -151 147v276h-233v-343h150v-80h-99c-121 0 -151 47 -151 147v342l50 124h50v-113h237l46 113h50v-113h160v-77zM169 379c30 74 84 129 177 129h15v-97h-25c-134 0 -166 -84 -166 -220v-191h-100v500h99v-121z" />
    <glyph glyph-name="t_t" horiz-adv-x="733" 
d="M705 423h-160v-343h150v-80h-99c-121 0 -151 47 -151 147v276h-233v-343h150v-80h-99c-121 0 -151 47 -151 147v276h-95v52l104 36l41 102h50v-113h237l46 113h50v-113h160v-77z" />
    <glyph glyph-name="asterisk.case" horiz-adv-x="766" 
d="M715 292h-85l-232 34l188 -140l60 -60l-57 -57l-60 60l-140 187l34 -231v-85h-81v85l34 231l-140 -187l-60 -60l-57 57l60 60l187 140l-231 -34h-85v81h85l231 -34l-187 140l-60 60l57 57l60 -60l140 -187l-34 231v85h81v-85l-34 -232l140 188l60 60l57 -57l-60 -60
l-188 -140l232 34h85v-81z" />
    <glyph glyph-name="percent.alt" horiz-adv-x="774" 
d="M191 402c-97 0 -141 63 -141 141c0 76 44 140 141 140s141 -64 141 -140c0 -78 -44 -141 -141 -141zM65 0v12l522 653h103v-12l-519 -653h-106zM191 475c43 0 62 19 62 68c0 50 -19 68 -62 68s-62 -18 -62 -68c0 -49 19 -68 62 -68zM583 -6c-97 0 -141 63 -141 141
c0 76 44 140 141 140s141 -64 141 -140c0 -78 -44 -141 -141 -141zM583 67c43 0 62 19 62 68c0 50 -19 68 -62 68s-62 -18 -62 -68c0 -49 19 -68 62 -68z" />
    <glyph glyph-name="uni2197.case" horiz-adv-x="603" 
d="M113 665h440v-440h-80v300l-363 -363l-60 60l363 363h-300v80z" />
    <glyph glyph-name="uni2196.case" horiz-adv-x="603" 
d="M553 222l-60 -60l-363 363v-300h-80v440h440v-80h-300z" />
    <glyph glyph-name="uni0308.case" 
d="M-363 735v90h116v-90h-116zM-176 735v90h116v-90h-116z" />
    <glyph glyph-name="uni0307.case" 
d="M-186 735v90h126v-90h-126z" />
    <glyph glyph-name="gravecomb.case" 
d="M-268 776l28 72l210 -93l-16 -34z" />
    <glyph glyph-name="acutecomb.case" 
d="M-30 776l-222 -55l-16 34l210 93z" />
    <glyph glyph-name="uni030B.case" 
d="M-275 815l-144 -79l-24 26l117 111zM-85 815l-144 -79l-24 26l117 111z" />
    <glyph glyph-name="uni0302.case" 
d="M-332 781l108 74h86l108 -74l-46 -49l-105 80l-105 -80z" />
    <glyph glyph-name="uni030C.case" 
d="M-387 809l46 49l105 -80l105 80l46 -49l-108 -74h-86z" />
    <glyph glyph-name="uni0306.case" 
d="M-343 843h60c3 -32 26 -52 69 -52s66 20 69 52h60c-5 -49 -37 -107 -129 -107s-124 58 -129 107z" />
    <glyph glyph-name="uni030A.case" 
d="M-153 709c-51 0 -80 37 -80 79c0 41 29 78 80 78s80 -37 80 -78c0 -42 -29 -79 -80 -79zM-186 788c0 -21 15 -35 33 -35s33 14 33 35s-15 34 -33 34s-33 -13 -33 -34z" />
    <glyph glyph-name="tildecomb.case" 
d="M-159 749c-46 0 -118 43 -143 43c-12 0 -19 -7 -19 -19v-22h-72v29c0 50 40 67 82 67c60 0 114 -43 143 -43c12 0 19 7 19 19v22h72v-29c0 -50 -40 -67 -82 -67z" />
    <glyph glyph-name="uni0304.case" 
d="M-423 833h338v-75h-338v75z" />
    <glyph glyph-name="uni0312.case" 
d="M-85 816v-96h-118v162c0 55 31 78 88 78h30v-58h-57v-86h57z" />
    </font>
</defs>
</svg>
